<svg width="146" height="32" viewBox="0 0 146 32" fill="none" xmlns="http://www.w3.org/2000/svg">
<path d="M102.884 23.716H104.55C103.388 21.672 102.898 19.558 102.898 17.164C102.898 14.77 103.388 12.656 104.55 10.612H102.884C101.792 12.278 101.176 14.588 101.176 17.164C101.176 19.74 101.792 22.022 102.884 23.716ZM107.948 19.46L110.566 16.968C111.924 15.694 112.19 14.826 112.19 13.874C112.19 12.138 110.818 11.06 108.69 11.06C107.08 11.06 105.722 11.662 104.966 12.684L106.24 13.664C106.786 12.964 107.584 12.642 108.536 12.642C109.74 12.642 110.356 13.16 110.356 14.056C110.356 14.602 110.188 15.176 109.236 16.086L105.344 19.782V21H112.568V19.46H107.948ZM117.665 21.14C120.003 21.14 121.767 19.32 121.767 16.1C121.767 12.88 120.003 11.06 117.665 11.06C115.341 11.06 113.577 12.88 113.577 16.1C113.577 19.32 115.341 21.14 117.665 21.14ZM117.665 19.558C116.335 19.558 115.411 18.466 115.411 16.1C115.411 13.734 116.335 12.642 117.665 12.642C119.009 12.642 119.933 13.734 119.933 16.1C119.933 18.466 119.009 19.558 117.665 19.558ZM131.733 17.234H129.997V15.26H128.289V17.234H125.083L129.633 11.2H127.687L122.857 17.514V18.774H128.233V21H129.997V18.774H131.733V17.234ZM135.734 11.06C133.732 11.06 132.15 12.292 132.15 14.238C132.15 16.072 133.592 17.248 135.524 17.248C136.616 17.248 137.554 16.912 138.142 16.226V16.24C138.142 18.466 136.98 19.614 135.132 19.614C134.446 19.614 133.802 19.488 133.27 19.138L132.598 20.51C133.256 20.93 134.194 21.14 135.174 21.14C138.016 21.14 139.976 19.292 139.976 15.932C139.976 12.782 138.408 11.06 135.734 11.06ZM135.874 15.82C134.684 15.82 133.914 15.176 133.914 14.154C133.914 13.132 134.698 12.488 135.832 12.488C137.134 12.488 137.862 13.216 137.862 14.14C137.862 15.106 137.05 15.82 135.874 15.82ZM142.566 23.716C143.672 22.022 144.274 19.74 144.274 17.164C144.274 14.588 143.672 12.278 142.566 10.612H140.9C142.062 12.656 142.566 14.77 142.566 17.164C142.566 19.558 142.062 21.672 140.9 23.716H142.566Z" fill="#808080"/>
<path d="M45.76 22L45.744 10.8H44.032L39.664 18.224L35.216 10.8H33.504V22H35.488V14.672L39.168 20.72H40.096L43.776 14.576L43.792 22H45.76ZM56.6253 17.776C56.6253 15.104 54.8013 13.36 52.3053 13.36C49.7613 13.36 47.8893 15.184 47.8893 17.728C47.8893 20.272 49.7453 22.112 52.6093 22.112C54.0813 22.112 55.2812 21.632 56.0493 20.72L54.9773 19.488C54.3693 20.112 53.6173 20.416 52.6573 20.416C51.1693 20.416 50.1293 19.616 49.8893 18.368H56.5933C56.6093 18.176 56.6253 17.936 56.6253 17.776ZM52.3053 14.96C53.6173 14.96 54.5613 15.808 54.7213 17.04H49.8733C50.0653 15.792 51.0093 14.96 52.3053 14.96ZM58.5464 22H60.5464V10.128H58.5464V22ZM66.4354 13.36C65.0594 13.36 63.7314 13.712 62.8194 14.416L63.6034 15.872C64.2434 15.344 65.2354 15.024 66.1954 15.024C67.6194 15.024 68.3234 15.712 68.3234 16.88V17.008H66.1154C63.5234 17.008 62.5634 18.128 62.5634 19.552C62.5634 21.04 63.7954 22.112 65.7474 22.112C67.0274 22.112 67.9554 21.696 68.4354 20.96V22H70.3234V16.992C70.3234 14.528 68.8994 13.36 66.4354 13.36ZM66.1634 20.656C65.1394 20.656 64.5314 20.192 64.5314 19.472C64.5314 18.848 64.8994 18.336 66.2594 18.336H68.3234V19.328C67.9874 20.208 67.1394 20.656 66.1634 20.656ZM78.8139 13.456L76.1099 19.776L73.4219 13.456H71.3419L75.0699 22.032L74.9259 22.368C74.5419 23.216 74.1259 23.552 73.4219 23.552C72.8779 23.552 72.3339 23.328 71.9499 22.96L71.1499 24.432C71.6939 24.928 72.5899 25.216 73.4379 25.216C74.8619 25.216 75.9499 24.624 76.7339 22.688L80.7339 13.456H78.8139ZM88.2559 13.456V17.776C88.2559 19.488 87.3119 20.352 85.9199 20.352C84.6559 20.352 83.9199 19.616 83.9199 18.064V13.456H81.9199V18.336C81.9199 20.912 83.4079 22.112 85.5999 22.112C86.7039 22.112 87.7119 21.696 88.3519 20.912V22H90.2559V13.456H88.2559Z" fill="#1C3554"/>
<path fill-rule="evenodd" clip-rule="evenodd" d="M19 9V23H5V9H19ZM19 7H5C3.9 7 3 7.9 3 9V23C3 24.1 3.9 25 5 25H19C20.1 25 21 24.1 21 23V9C21 7.9 20.1 7 19 7Z" fill="#CCCCCC"/>
</svg>
