<svg width="165" height="32" viewBox="0 0 165 32" fill="none" xmlns="http://www.w3.org/2000/svg">
<path d="M121.884 23.716H123.55C122.388 21.672 121.898 19.558 121.898 17.164C121.898 14.77 122.388 12.656 123.55 10.612H121.884C120.792 12.278 120.176 14.588 120.176 17.164C120.176 19.74 120.792 22.022 121.884 23.716ZM126.948 19.46L129.566 16.968C130.924 15.694 131.19 14.826 131.19 13.874C131.19 12.138 129.818 11.06 127.69 11.06C126.08 11.06 124.722 11.662 123.966 12.684L125.24 13.664C125.786 12.964 126.584 12.642 127.536 12.642C128.74 12.642 129.356 13.16 129.356 14.056C129.356 14.602 129.188 15.176 128.236 16.086L124.344 19.782V21H131.568V19.46H126.948ZM136.665 21.14C139.003 21.14 140.767 19.32 140.767 16.1C140.767 12.88 139.003 11.06 136.665 11.06C134.341 11.06 132.577 12.88 132.577 16.1C132.577 19.32 134.341 21.14 136.665 21.14ZM136.665 19.558C135.335 19.558 134.411 18.466 134.411 16.1C134.411 13.734 135.335 12.642 136.665 12.642C138.009 12.642 138.933 13.734 138.933 16.1C138.933 18.466 138.009 19.558 136.665 19.558ZM150.733 17.234H148.997V15.26H147.289V17.234H144.083L148.633 11.2H146.687L141.857 17.514V18.774H147.233V21H148.997V18.774H150.733V17.234ZM154.734 11.06C152.732 11.06 151.15 12.292 151.15 14.238C151.15 16.072 152.592 17.248 154.524 17.248C155.616 17.248 156.554 16.912 157.142 16.226V16.24C157.142 18.466 155.98 19.614 154.132 19.614C153.446 19.614 152.802 19.488 152.27 19.138L151.598 20.51C152.256 20.93 153.194 21.14 154.174 21.14C157.016 21.14 158.976 19.292 158.976 15.932C158.976 12.782 157.408 11.06 154.734 11.06ZM154.874 15.82C153.684 15.82 152.914 15.176 152.914 14.154C152.914 13.132 153.698 12.488 154.832 12.488C156.134 12.488 156.862 13.216 156.862 14.14C156.862 15.106 156.05 15.82 154.874 15.82ZM161.566 23.716C162.672 22.022 163.274 19.74 163.274 17.164C163.274 14.588 162.672 12.278 161.566 10.612H159.9C161.062 12.656 161.566 14.77 161.566 17.164C161.566 19.558 161.062 21.672 159.9 23.716H161.566Z" fill="#808080"/>
<path d="M32.128 10.8V12.544H34.496V22H36.576V10.8H32.128ZM43.5658 15.424L46.2858 12.192V10.8H38.6538V12.544H43.7418L41.1978 15.568V16.992H42.2218C43.9178 16.992 44.6538 17.648 44.6538 18.656C44.6538 19.696 43.7738 20.352 42.2858 20.352C41.0218 20.352 39.8058 19.92 39.0058 19.248L38.1098 20.864C39.1497 21.68 40.7338 22.16 42.3177 22.16C45.3258 22.16 46.7498 20.528 46.7498 18.64C46.7498 16.96 45.6778 15.696 43.5658 15.424ZM55.8223 15.6H52.9903V12.8H51.2783V15.6H48.4463V17.2H51.2783V20H52.9903V17.2H55.8223V15.6ZM70.6416 10.8V15.424H64.8496V10.8H62.7696V22H64.8496V17.2H70.6416V22H72.7216V10.8H70.6416ZM79.3708 22.112C82.0268 22.112 83.9308 20.288 83.9308 17.728C83.9308 15.168 82.0268 13.36 79.3708 13.36C76.7468 13.36 74.8268 15.168 74.8268 17.728C74.8268 20.288 76.7468 22.112 79.3708 22.112ZM79.3708 20.4C77.9308 20.4 76.8428 19.36 76.8428 17.728C76.8428 16.096 77.9308 15.056 79.3708 15.056C80.8268 15.056 81.9148 16.096 81.9148 17.728C81.9148 19.36 80.8268 20.4 79.3708 20.4ZM92.1153 13.456V17.776C92.1153 19.488 91.1713 20.352 89.7793 20.352C88.5153 20.352 87.7793 19.616 87.7793 18.064V13.456H85.7793V18.336C85.7793 20.912 87.2673 22.112 89.4593 22.112C90.5633 22.112 91.5713 21.696 92.2113 20.912V22H94.1153V13.456H92.1153ZM98.6379 14.704V13.456H96.7339V22H98.7339V17.856C98.7339 16.112 99.6939 15.216 101.214 15.216C101.358 15.216 101.502 15.232 101.678 15.264V13.36C100.254 13.36 99.2139 13.808 98.6379 14.704ZM106.046 22.112C108.446 22.112 109.918 21.072 109.918 19.472C109.918 16.128 104.638 17.664 104.638 15.936C104.638 15.376 105.214 14.976 106.43 14.976C107.246 14.976 108.062 15.136 108.878 15.616L109.646 14.096C108.878 13.632 107.582 13.36 106.446 13.36C104.142 13.36 102.686 14.416 102.686 16.032C102.686 19.44 107.966 17.904 107.966 19.536C107.966 20.128 107.438 20.48 106.174 20.48C105.102 20.48 103.95 20.128 103.198 19.632L102.43 21.152C103.198 21.696 104.622 22.112 106.046 22.112Z" fill="#1C3554"/>
<path fill-rule="evenodd" clip-rule="evenodd" d="M19 9V23H5V9H19ZM19 7H5C3.9 7 3 7.9 3 9V23C3 24.1 3.9 25 5 25H19C20.1 25 21 24.1 21 23V9C21 7.9 20.1 7 19 7Z" fill="#CCCCCC"/>
</svg>
