<svg width="156" height="32" viewBox="0 0 156 32" fill="none" xmlns="http://www.w3.org/2000/svg">
<path d="M117.884 23.716H119.55C118.388 21.672 117.898 19.558 117.898 17.164C117.898 14.77 118.388 12.656 119.55 10.612H117.884C116.792 12.278 116.176 14.588 116.176 17.164C116.176 19.74 116.792 22.022 117.884 23.716ZM120.102 11.2V12.726H122.174V21H123.994V11.2H120.102ZM128.416 19.46L131.034 16.968C132.392 15.694 132.658 14.826 132.658 13.874C132.658 12.138 131.286 11.06 129.158 11.06C127.548 11.06 126.19 11.662 125.434 12.684L126.708 13.664C127.254 12.964 128.052 12.642 129.004 12.642C130.208 12.642 130.824 13.16 130.824 14.056C130.824 14.602 130.656 15.176 129.704 16.086L125.812 19.782V21H133.036V19.46H128.416ZM142.618 17.234H140.882V15.26H139.174V17.234H135.968L140.518 11.2H138.572L133.742 17.514V18.774H139.118V21H140.882V18.774H142.618V17.234ZM145.821 19.46L148.439 16.968C149.797 15.694 150.063 14.826 150.063 13.874C150.063 12.138 148.691 11.06 146.563 11.06C144.953 11.06 143.595 11.662 142.839 12.684L144.113 13.664C144.659 12.964 145.457 12.642 146.409 12.642C147.613 12.642 148.229 13.16 148.229 14.056C148.229 14.602 148.061 15.176 147.109 16.086L143.217 19.782V21H150.441V19.46H145.821ZM152.849 23.716C153.955 22.022 154.557 19.74 154.557 17.164C154.557 14.588 153.955 12.278 152.849 10.612H151.183C152.345 12.656 152.849 14.77 152.849 17.164C152.849 19.558 152.345 21.672 151.183 23.716H152.849Z" fill="#808080"/>
<path d="M32.128 10.8V12.544H34.496V22H36.576V10.8H32.128ZM38.9738 18.384H43.3738V16.72H38.9738V18.384ZM49.4095 15.424L52.1295 12.192V10.8H44.4975V12.544H49.5855L47.0415 15.568V16.992H48.0655C49.7615 16.992 50.4975 17.648 50.4975 18.656C50.4975 19.696 49.6175 20.352 48.1295 20.352C46.8655 20.352 45.6495 19.92 44.8495 19.248L43.9535 20.864C44.9935 21.68 46.5775 22.16 48.1615 22.16C51.1695 22.16 52.5935 20.528 52.5935 18.64C52.5935 16.96 51.5215 15.696 49.4095 15.424ZM67.0479 10.8V15.424H61.2559V10.8H59.1759V22H61.2559V17.2H67.0479V22H69.1279V10.8H67.0479ZM75.777 22.112C78.433 22.112 80.337 20.288 80.337 17.728C80.337 15.168 78.433 13.36 75.777 13.36C73.153 13.36 71.233 15.168 71.233 17.728C71.233 20.288 73.153 22.112 75.777 22.112ZM75.777 20.4C74.337 20.4 73.249 19.36 73.249 17.728C73.249 16.096 74.337 15.056 75.777 15.056C77.233 15.056 78.321 16.096 78.321 17.728C78.321 19.36 77.233 20.4 75.777 20.4ZM88.5215 13.456V17.776C88.5215 19.488 87.5775 20.352 86.1855 20.352C84.9215 20.352 84.1855 19.616 84.1855 18.064V13.456H82.1855V18.336C82.1855 20.912 83.6735 22.112 85.8655 22.112C86.9695 22.112 87.9775 21.696 88.6175 20.912V22H90.5215V13.456H88.5215ZM95.0441 14.704V13.456H93.1401V22H95.1401V17.856C95.1401 16.112 96.1001 15.216 97.6201 15.216C97.7641 15.216 97.9081 15.232 98.0841 15.264V13.36C96.6601 13.36 95.6201 13.808 95.0441 14.704ZM102.452 22.112C104.852 22.112 106.324 21.072 106.324 19.472C106.324 16.128 101.044 17.664 101.044 15.936C101.044 15.376 101.62 14.976 102.836 14.976C103.652 14.976 104.468 15.136 105.284 15.616L106.052 14.096C105.284 13.632 103.988 13.36 102.852 13.36C100.548 13.36 99.092 14.416 99.092 16.032C99.092 19.44 104.372 17.904 104.372 19.536C104.372 20.128 103.844 20.48 102.58 20.48C101.508 20.48 100.356 20.128 99.604 19.632L98.836 21.152C99.604 21.696 101.028 22.112 102.452 22.112Z" fill="#1C3554"/>
<path fill-rule="evenodd" clip-rule="evenodd" d="M19 9V23H5V9H19ZM19 7H5C3.9 7 3 7.9 3 9V23C3 24.1 3.9 25 5 25H19C20.1 25 21 24.1 21 23V9C21 7.9 20.1 7 19 7Z" fill="#CCCCCC"/>
</svg>
