<svg width="118" height="32" viewBox="0 0 118 32" fill="none" xmlns="http://www.w3.org/2000/svg">
<path d="M74.884 23.716H76.55C75.388 21.672 74.898 19.558 74.898 17.164C74.898 14.77 75.388 12.656 76.55 10.612H74.884C73.792 12.278 73.176 14.588 73.176 17.164C73.176 19.74 73.792 22.022 74.884 23.716ZM79.9475 19.46L82.5655 16.968C83.9235 15.694 84.1895 14.826 84.1895 13.874C84.1895 12.138 82.8175 11.06 80.6895 11.06C79.0795 11.06 77.7215 11.662 76.9655 12.684L78.2395 13.664C78.7855 12.964 79.5835 12.642 80.5355 12.642C81.7395 12.642 82.3555 13.16 82.3555 14.056C82.3555 14.602 82.1875 15.176 81.2355 16.086L77.3435 19.782V21H84.5675V19.46H79.9475ZM89.6649 21.14C92.0029 21.14 93.7669 19.32 93.7669 16.1C93.7669 12.88 92.0029 11.06 89.6649 11.06C87.3409 11.06 85.5769 12.88 85.5769 16.1C85.5769 19.32 87.3409 21.14 89.6649 21.14ZM89.6649 19.558C88.3349 19.558 87.4109 18.466 87.4109 16.1C87.4109 13.734 88.3349 12.642 89.6649 12.642C91.0089 12.642 91.9329 13.734 91.9329 16.1C91.9329 18.466 91.0089 19.558 89.6649 19.558ZM103.733 17.234H101.997V15.26H100.289V17.234H97.0829L101.633 11.2H99.6869L94.8569 17.514V18.774H100.233V21H101.997V18.774H103.733V17.234ZM107.734 11.06C105.732 11.06 104.15 12.292 104.15 14.238C104.15 16.072 105.592 17.248 107.524 17.248C108.616 17.248 109.554 16.912 110.142 16.226V16.24C110.142 18.466 108.98 19.614 107.132 19.614C106.446 19.614 105.802 19.488 105.27 19.138L104.598 20.51C105.256 20.93 106.194 21.14 107.174 21.14C110.016 21.14 111.976 19.292 111.976 15.932C111.976 12.782 110.408 11.06 107.734 11.06ZM107.874 15.82C106.684 15.82 105.914 15.176 105.914 14.154C105.914 13.132 106.698 12.488 107.832 12.488C109.134 12.488 109.862 13.216 109.862 14.14C109.862 15.106 109.05 15.82 107.874 15.82ZM114.566 23.716C115.672 22.022 116.274 19.74 116.274 17.164C116.274 14.588 115.672 12.278 114.566 10.612H112.9C114.062 12.656 114.566 14.77 114.566 17.164C114.566 19.558 114.062 21.672 112.9 23.716H114.566Z" fill="#808080"/>
<path d="M38.688 22.16C40.528 22.16 42.096 21.504 43.136 20.288L41.792 19.008C40.976 19.904 39.968 20.336 38.8 20.336C36.48 20.336 34.8 18.704 34.8 16.4C34.8 14.096 36.48 12.464 38.8 12.464C39.968 12.464 40.976 12.896 41.792 13.776L43.136 12.512C42.096 11.296 40.528 10.64 38.704 10.64C35.264 10.64 32.704 13.056 32.704 16.4C32.704 19.744 35.264 22.16 38.688 22.16ZM48.5385 22.16C51.6105 22.16 53.0665 20.624 53.0665 18.832C53.0665 14.72 46.4265 16.272 46.4265 13.888C46.4265 13.04 47.1305 12.368 48.8585 12.368C49.8345 12.368 50.9385 12.656 51.9465 13.248L52.6025 11.632C51.6265 10.992 50.2185 10.64 48.8745 10.64C45.8025 10.64 44.3625 12.176 44.3625 13.984C44.3625 18.144 51.0185 16.56 51.0185 18.976C51.0185 19.808 50.2825 20.432 48.5385 20.432C47.1625 20.432 45.7385 19.92 44.8425 19.2L44.1225 20.816C45.0505 21.616 46.7945 22.16 48.5385 22.16ZM58.601 22.16C61.673 22.16 63.129 20.624 63.129 18.832C63.129 14.72 56.489 16.272 56.489 13.888C56.489 13.04 57.193 12.368 58.921 12.368C59.897 12.368 61.001 12.656 62.009 13.248L62.665 11.632C61.689 10.992 60.281 10.64 58.937 10.64C55.865 10.64 54.425 12.176 54.425 13.984C54.425 18.144 61.081 16.56 61.081 18.976C61.081 19.808 60.345 20.432 58.601 20.432C57.225 20.432 55.801 19.92 54.905 19.2L54.185 20.816C55.113 21.616 56.857 22.16 58.601 22.16Z" fill="#1C3554"/>
<path fill-rule="evenodd" clip-rule="evenodd" d="M19 9V23H5V9H19ZM19 7H5C3.9 7 3 7.9 3 9V23C3 24.1 3.9 25 5 25H19C20.1 25 21 24.1 21 23V9C21 7.9 20.1 7 19 7Z" fill="#CCCCCC"/>
</svg>
