<svg width="132" height="32" viewBox="0 0 132 32" fill="none" xmlns="http://www.w3.org/2000/svg">
<path d="M98.884 23.716H100.55C99.388 21.672 98.898 19.558 98.898 17.164C98.898 14.77 99.388 12.656 100.55 10.612H98.884C97.792 12.278 97.176 14.588 97.176 17.164C97.176 19.74 97.792 22.022 98.884 23.716ZM103.948 19.46L106.566 16.968C107.924 15.694 108.19 14.826 108.19 13.874C108.19 12.138 106.818 11.06 104.69 11.06C103.08 11.06 101.722 11.662 100.966 12.684L102.24 13.664C102.786 12.964 103.584 12.642 104.536 12.642C105.74 12.642 106.356 13.16 106.356 14.056C106.356 14.602 106.188 15.176 105.236 16.086L101.344 19.782V21H108.568V19.46H103.948ZM112.096 19.46L114.714 16.968C116.072 15.694 116.338 14.826 116.338 13.874C116.338 12.138 114.966 11.06 112.838 11.06C111.228 11.06 109.87 11.662 109.114 12.684L110.388 13.664C110.934 12.964 111.732 12.642 112.684 12.642C113.888 12.642 114.504 13.16 114.504 14.056C114.504 14.602 114.336 15.176 113.384 16.086L109.492 19.782V21H116.716V19.46H112.096ZM126.297 17.234H124.561V15.26H122.853V17.234H119.647L124.197 11.2H122.251L117.421 17.514V18.774H122.797V21H124.561V18.774H126.297V17.234ZM128.421 23.716C129.527 22.022 130.129 19.74 130.129 17.164C130.129 14.588 129.527 12.278 128.421 10.612H126.755C127.917 12.656 128.421 14.77 128.421 17.164C128.421 19.558 127.917 21.672 126.755 23.716H128.421Z" fill="#808080"/>
<path d="M41.68 12.544V10.8H33.504V22H35.584V17.712H40.992V15.952H35.584V12.544H41.68ZM43.4995 22H45.4995V10.128H43.4995V22ZM54.3965 13.456V17.776C54.3965 19.488 53.4525 20.352 52.0605 20.352C50.7965 20.352 50.0605 19.616 50.0605 18.064V13.456H48.0605V18.336C48.0605 20.912 49.5485 22.112 51.7405 22.112C52.8445 22.112 53.8525 21.696 54.4925 20.912V22H56.3965V13.456H54.3965ZM63.5911 20.112C63.2871 20.352 62.8871 20.464 62.4711 20.464C61.7031 20.464 61.2871 20.016 61.2871 19.184V15.12H63.5751V13.52H61.2871V11.568H59.2871V13.52H57.8791V15.12H59.2871V19.232C59.2871 21.12 60.3591 22.112 62.2311 22.112C62.9511 22.112 63.6711 21.92 64.1511 21.536L63.5911 20.112ZM70.1693 20.112C69.8653 20.352 69.4653 20.464 69.0493 20.464C68.2812 20.464 67.8653 20.016 67.8653 19.184V15.12H70.1533V13.52H67.8653V11.568H65.8653V13.52H64.4573V15.12H65.8653V19.232C65.8653 21.12 66.9373 22.112 68.8093 22.112C69.5293 22.112 70.2493 21.92 70.7293 21.536L70.1693 20.112ZM80.1253 17.776C80.1253 15.104 78.3013 13.36 75.8053 13.36C73.2613 13.36 71.3893 15.184 71.3893 17.728C71.3893 20.272 73.2453 22.112 76.1093 22.112C77.5813 22.112 78.7812 21.632 79.5493 20.72L78.4773 19.488C77.8693 20.112 77.1173 20.416 76.1573 20.416C74.6693 20.416 73.6293 19.616 73.3893 18.368H80.0933C80.1093 18.176 80.1253 17.936 80.1253 17.776ZM75.8053 14.96C77.1173 14.96 78.0613 15.808 78.2213 17.04H73.3733C73.5653 15.792 74.5093 14.96 75.8053 14.96ZM83.9504 14.704V13.456H82.0464V22H84.0464V17.856C84.0464 16.112 85.0064 15.216 86.5264 15.216C86.6704 15.216 86.8144 15.232 86.9904 15.264V13.36C85.5664 13.36 84.5264 13.808 83.9504 14.704Z" fill="#1C3554"/>
<path fill-rule="evenodd" clip-rule="evenodd" d="M19 9V23H5V9H19ZM19 7H5C3.9 7 3 7.9 3 9V23C3 24.1 3.9 25 5 25H19C20.1 25 21 24.1 21 23V9C21 7.9 20.1 7 19 7Z" fill="#CCCCCC"/>
</svg>
