<svg width="148" height="32" viewBox="0 0 148 32" fill="none" xmlns="http://www.w3.org/2000/svg">
<path d="M104.884 23.716H106.55C105.388 21.672 104.898 19.558 104.898 17.164C104.898 14.77 105.388 12.656 106.55 10.612H104.884C103.792 12.278 103.176 14.588 103.176 17.164C103.176 19.74 103.792 22.022 104.884 23.716ZM109.948 19.46L112.566 16.968C113.924 15.694 114.19 14.826 114.19 13.874C114.19 12.138 112.818 11.06 110.69 11.06C109.08 11.06 107.722 11.662 106.966 12.684L108.24 13.664C108.786 12.964 109.584 12.642 110.536 12.642C111.74 12.642 112.356 13.16 112.356 14.056C112.356 14.602 112.188 15.176 111.236 16.086L107.344 19.782V21H114.568V19.46H109.948ZM119.665 21.14C122.003 21.14 123.767 19.32 123.767 16.1C123.767 12.88 122.003 11.06 119.665 11.06C117.341 11.06 115.577 12.88 115.577 16.1C115.577 19.32 117.341 21.14 119.665 21.14ZM119.665 19.558C118.335 19.558 117.411 18.466 117.411 16.1C117.411 13.734 118.335 12.642 119.665 12.642C121.009 12.642 121.933 13.734 121.933 16.1C121.933 18.466 121.009 19.558 119.665 19.558ZM133.733 17.234H131.997V15.26H130.289V17.234H127.083L131.633 11.2H129.687L124.857 17.514V18.774H130.233V21H131.997V18.774H133.733V17.234ZM137.734 11.06C135.732 11.06 134.15 12.292 134.15 14.238C134.15 16.072 135.592 17.248 137.524 17.248C138.616 17.248 139.554 16.912 140.142 16.226V16.24C140.142 18.466 138.98 19.614 137.132 19.614C136.446 19.614 135.802 19.488 135.27 19.138L134.598 20.51C135.256 20.93 136.194 21.14 137.174 21.14C140.016 21.14 141.976 19.292 141.976 15.932C141.976 12.782 140.408 11.06 137.734 11.06ZM137.874 15.82C136.684 15.82 135.914 15.176 135.914 14.154C135.914 13.132 136.698 12.488 137.832 12.488C139.134 12.488 139.862 13.216 139.862 14.14C139.862 15.106 139.05 15.82 137.874 15.82ZM144.566 23.716C145.672 22.022 146.274 19.74 146.274 17.164C146.274 14.588 145.672 12.278 144.566 10.612H142.9C144.062 12.656 144.566 14.77 144.566 17.164C144.566 19.558 144.062 21.672 142.9 23.716H144.566Z" fill="#808080"/>
<path d="M35.584 20.256V17.168H40.992V15.456H35.584V12.544H41.68V10.8H33.504V22H41.904V20.256H35.584ZM48.8788 13.36C47.6308 13.36 46.5908 13.776 45.9348 14.56V13.456H44.0308V22H46.0308V17.68C46.0308 15.968 46.9908 15.104 48.4148 15.104C49.6948 15.104 50.4468 15.84 50.4468 17.36V22H52.4468V17.104C52.4468 14.528 50.9268 13.36 48.8788 13.36ZM61.638 13.456V14.592C60.934 13.744 59.878 13.36 58.678 13.36C56.23 13.36 54.358 14.992 54.358 17.472C54.358 19.952 56.23 21.616 58.678 21.616C59.83 21.616 60.838 21.248 61.542 20.48V20.928C61.542 22.656 60.71 23.52 58.822 23.52C57.638 23.52 56.422 23.12 55.67 22.496L54.774 24C55.75 24.8 57.334 25.216 58.934 25.216C61.926 25.216 63.542 23.808 63.542 20.704V13.456H61.638ZM58.982 19.92C57.462 19.92 56.374 18.928 56.374 17.472C56.374 16.032 57.462 15.056 58.982 15.056C60.486 15.056 61.574 16.032 61.574 17.472C61.574 18.928 60.486 19.92 58.982 19.92ZM66.1714 22H68.1714V10.128H66.1714V22ZM71.8044 12.048C72.5564 12.048 73.0844 11.504 73.0844 10.8C73.0844 10.144 72.5404 9.648 71.8044 9.648C71.0684 9.648 70.5244 10.176 70.5244 10.848C70.5244 11.52 71.0684 12.048 71.8044 12.048ZM70.7964 22H72.7964V13.456H70.7964V22ZM78.0614 22.112C80.4614 22.112 81.9334 21.072 81.9334 19.472C81.9334 16.128 76.6534 17.664 76.6534 15.936C76.6534 15.376 77.2294 14.976 78.4454 14.976C79.2614 14.976 80.0774 15.136 80.8934 15.616L81.6614 14.096C80.8934 13.632 79.5974 13.36 78.4614 13.36C76.1574 13.36 74.7014 14.416 74.7014 16.032C74.7014 19.44 79.9814 17.904 79.9814 19.536C79.9814 20.128 79.4534 20.48 78.1894 20.48C77.1174 20.48 75.9654 20.128 75.2134 19.632L74.4454 21.152C75.2134 21.696 76.6374 22.112 78.0614 22.112ZM88.5038 13.36C87.3198 13.36 86.3118 13.744 85.6558 14.448V10.128H83.6558V22H85.6558V17.68C85.6558 15.968 86.6158 15.104 88.0398 15.104C89.3198 15.104 90.0718 15.84 90.0718 17.36V22H92.0718V17.104C92.0718 14.528 90.5518 13.36 88.5038 13.36Z" fill="#1C3554"/>
<path fill-rule="evenodd" clip-rule="evenodd" d="M19 9V23H5V9H19ZM19 7H5C3.9 7 3 7.9 3 9V23C3 24.1 3.9 25 5 25H19C20.1 25 21 24.1 21 23V9C21 7.9 20.1 7 19 7Z" fill="#CCCCCC"/>
</svg>
