<svg width="141" height="32" viewBox="0 0 141 32" fill="none" xmlns="http://www.w3.org/2000/svg">
<path d="M102.884 23.716H104.55C103.388 21.672 102.898 19.558 102.898 17.164C102.898 14.77 103.388 12.656 104.55 10.612H102.884C101.792 12.278 101.176 14.588 101.176 17.164C101.176 19.74 101.792 22.022 102.884 23.716ZM105.102 11.2V12.726H107.174V21H108.994V11.2H105.102ZM113.416 19.46L116.034 16.968C117.392 15.694 117.658 14.826 117.658 13.874C117.658 12.138 116.286 11.06 114.158 11.06C112.548 11.06 111.19 11.662 110.434 12.684L111.708 13.664C112.254 12.964 113.052 12.642 114.004 12.642C115.208 12.642 115.824 13.16 115.824 14.056C115.824 14.602 115.656 15.176 114.704 16.086L110.812 19.782V21H118.036V19.46H113.416ZM127.618 17.234H125.882V15.26H124.174V17.234H120.968L125.518 11.2H123.572L118.742 17.514V18.774H124.118V21H125.882V18.774H127.618V17.234ZM130.821 19.46L133.439 16.968C134.797 15.694 135.063 14.826 135.063 13.874C135.063 12.138 133.691 11.06 131.563 11.06C129.953 11.06 128.595 11.662 127.839 12.684L129.113 13.664C129.659 12.964 130.457 12.642 131.409 12.642C132.613 12.642 133.229 13.16 133.229 14.056C133.229 14.602 133.061 15.176 132.109 16.086L128.217 19.782V21H135.441V19.46H130.821ZM137.849 23.716C138.955 22.022 139.557 19.74 139.557 17.164C139.557 14.588 138.955 12.278 137.849 10.612H136.183C137.345 12.656 137.849 14.77 137.849 17.164C137.849 19.558 137.345 21.672 136.183 23.716H137.849Z" fill="#808080"/>
<path d="M41.152 19.76C40.432 20.176 39.648 20.336 38.848 20.336C36.48 20.336 34.8 18.672 34.8 16.4C34.8 14.08 36.48 12.464 38.864 12.464C40.064 12.464 41.072 12.864 41.952 13.744L43.264 12.464C42.208 11.264 40.64 10.64 38.768 10.64C35.264 10.64 32.704 13.056 32.704 16.4C32.704 19.744 35.264 22.16 38.736 22.16C40.32 22.16 41.952 21.68 43.12 20.736V16.272H41.152V19.76ZM49.5114 22.112C52.1674 22.112 54.0714 20.288 54.0714 17.728C54.0714 15.168 52.1674 13.36 49.5114 13.36C46.8874 13.36 44.9674 15.168 44.9674 17.728C44.9674 20.288 46.8874 22.112 49.5114 22.112ZM49.5114 20.4C48.0714 20.4 46.9834 19.36 46.9834 17.728C46.9834 16.096 48.0714 15.056 49.5114 15.056C50.9674 15.056 52.0554 16.096 52.0554 17.728C52.0554 19.36 50.9674 20.4 49.5114 20.4ZM55.9839 22H57.9839V10.128H55.9839V22ZM63.8729 13.36C62.4969 13.36 61.1689 13.712 60.2569 14.416L61.0409 15.872C61.6809 15.344 62.6729 15.024 63.6329 15.024C65.0569 15.024 65.7609 15.712 65.7609 16.88V17.008H63.5529C60.9609 17.008 60.0009 18.128 60.0009 19.552C60.0009 21.04 61.2329 22.112 63.1849 22.112C64.4649 22.112 65.3929 21.696 65.8729 20.96V22H67.7609V16.992C67.7609 14.528 66.3369 13.36 63.8729 13.36ZM63.6009 20.656C62.5769 20.656 61.9689 20.192 61.9689 19.472C61.9689 18.848 62.3369 18.336 63.6969 18.336H65.7609V19.328C65.4249 20.208 64.5769 20.656 63.6009 20.656ZM75.1756 13.36C73.9276 13.36 72.8876 13.776 72.2316 14.56V13.456H70.3276V22H72.3276V17.68C72.3276 15.968 73.2876 15.104 74.7116 15.104C75.9916 15.104 76.7436 15.84 76.7436 17.36V22H78.7436V17.104C78.7436 14.528 77.2236 13.36 75.1756 13.36ZM87.9349 13.456V14.592C87.2309 13.744 86.1749 13.36 84.9749 13.36C82.5269 13.36 80.6549 14.992 80.6549 17.472C80.6549 19.952 82.5269 21.616 84.9749 21.616C86.1269 21.616 87.1349 21.248 87.8389 20.48V20.928C87.8389 22.656 87.0069 23.52 85.1189 23.52C83.9349 23.52 82.7189 23.12 81.9669 22.496L81.0709 24C82.0469 24.8 83.6309 25.216 85.2309 25.216C88.2229 25.216 89.8389 23.808 89.8389 20.704V13.456H87.9349ZM85.2789 19.92C83.7589 19.92 82.6709 18.928 82.6709 17.472C82.6709 16.032 83.7589 15.056 85.2789 15.056C86.7829 15.056 87.8709 16.032 87.8709 17.472C87.8709 18.928 86.7829 19.92 85.2789 19.92Z" fill="#1C3554"/>
<path fill-rule="evenodd" clip-rule="evenodd" d="M19 9V23H5V9H19ZM19 7H5C3.9 7 3 7.9 3 9V23C3 24.1 3.9 25 5 25H19C20.1 25 21 24.1 21 23V9C21 7.9 20.1 7 19 7Z" fill="#CCCCCC"/>
</svg>
