<svg width="161" height="32" viewBox="0 0 161 32" fill="none" xmlns="http://www.w3.org/2000/svg">
<path d="M122.884 23.716H124.55C123.388 21.672 122.898 19.558 122.898 17.164C122.898 14.77 123.388 12.656 124.55 10.612H122.884C121.792 12.278 121.176 14.588 121.176 17.164C121.176 19.74 121.792 22.022 122.884 23.716ZM127.948 19.46L130.566 16.968C131.924 15.694 132.19 14.826 132.19 13.874C132.19 12.138 130.818 11.06 128.69 11.06C127.08 11.06 125.722 11.662 124.966 12.684L126.24 13.664C126.786 12.964 127.584 12.642 128.536 12.642C129.74 12.642 130.356 13.16 130.356 14.056C130.356 14.602 130.188 15.176 129.236 16.086L125.344 19.782V21H132.568V19.46H127.948ZM133.114 11.2V12.726H135.186V21H137.006V11.2H133.114ZM147.686 17.234H145.95V15.26H144.242V17.234H141.036L145.586 11.2H143.64L138.81 17.514V18.774H144.186V21H145.95V18.774H147.686V17.234ZM151.477 14.994H150.539L150.749 12.726H154.963V11.2H149.209L148.705 16.534H151.071C153.101 16.534 153.703 17.122 153.703 18.06C153.703 18.984 152.933 19.558 151.631 19.558C150.525 19.558 149.461 19.18 148.747 18.592L147.977 20.006C148.873 20.72 150.273 21.14 151.659 21.14C154.291 21.14 155.537 19.712 155.537 17.99C155.537 16.254 154.375 14.994 151.477 14.994ZM157.945 23.716C159.051 22.022 159.653 19.74 159.653 17.164C159.653 14.588 159.051 12.278 157.945 10.612H156.279C157.441 12.656 157.945 14.77 157.945 17.164C157.945 19.558 157.441 21.672 156.279 23.716H157.945Z" fill="#808080"/>
<path d="M37.472 15.424L40.192 12.192V10.8H32.56V12.544H37.648L35.104 15.568V16.992H36.128C37.824 16.992 38.56 17.648 38.56 18.656C38.56 19.696 37.68 20.352 36.192 20.352C34.928 20.352 33.712 19.92 32.912 19.248L32.016 20.864C33.056 21.68 34.64 22.16 36.224 22.16C39.232 22.16 40.656 20.528 40.656 18.64C40.656 16.96 39.584 15.696 37.472 15.424ZM42.1925 18.384H46.5925V16.72H42.1925V18.384ZM53.3389 15.088C52.0909 15.088 51.0189 15.472 50.3469 16.256V16.24C50.3469 13.696 51.6749 12.384 53.7869 12.384C54.5709 12.384 55.3069 12.528 55.9149 12.928L56.6829 11.36C55.9309 10.88 54.8589 10.64 53.7389 10.64C50.4909 10.64 48.2509 12.752 48.2509 16.592C48.2509 20.192 50.0429 22.16 53.0989 22.16C55.3869 22.16 57.1949 20.752 57.1949 18.528C57.1949 16.432 55.5469 15.088 53.3389 15.088ZM52.9869 20.528C51.4989 20.528 50.6669 19.696 50.6669 18.64C50.6669 17.536 51.5949 16.72 52.9389 16.72C54.2989 16.72 55.1789 17.456 55.1789 18.624C55.1789 19.792 54.2829 20.528 52.9869 20.528ZM71.376 10.8V15.424H65.584V10.8H63.504V22H65.584V17.2H71.376V22H73.456V10.8H71.376ZM80.1051 22.112C82.7611 22.112 84.6651 20.288 84.6651 17.728C84.6651 15.168 82.7611 13.36 80.1051 13.36C77.4811 13.36 75.5611 15.168 75.5611 17.728C75.5611 20.288 77.4811 22.112 80.1051 22.112ZM80.1051 20.4C78.6651 20.4 77.5771 19.36 77.5771 17.728C77.5771 16.096 78.6651 15.056 80.1051 15.056C81.5611 15.056 82.6491 16.096 82.6491 17.728C82.6491 19.36 81.5611 20.4 80.1051 20.4ZM92.8496 13.456V17.776C92.8496 19.488 91.9056 20.352 90.5136 20.352C89.2496 20.352 88.5136 19.616 88.5136 18.064V13.456H86.5136V18.336C86.5136 20.912 88.0016 22.112 90.1936 22.112C91.2976 22.112 92.3056 21.696 92.9456 20.912V22H94.8496V13.456H92.8496ZM99.3723 14.704V13.456H97.4683V22H99.4683V17.856C99.4683 16.112 100.428 15.216 101.948 15.216C102.092 15.216 102.236 15.232 102.412 15.264V13.36C100.988 13.36 99.9483 13.808 99.3723 14.704ZM106.78 22.112C109.18 22.112 110.652 21.072 110.652 19.472C110.652 16.128 105.372 17.664 105.372 15.936C105.372 15.376 105.948 14.976 107.164 14.976C107.98 14.976 108.796 15.136 109.612 15.616L110.38 14.096C109.612 13.632 108.316 13.36 107.18 13.36C104.876 13.36 103.42 14.416 103.42 16.032C103.42 19.44 108.7 17.904 108.7 19.536C108.7 20.128 108.172 20.48 106.908 20.48C105.836 20.48 104.684 20.128 103.932 19.632L103.164 21.152C103.932 21.696 105.356 22.112 106.78 22.112Z" fill="#1C3554"/>
<path fill-rule="evenodd" clip-rule="evenodd" d="M19 9V23H5V9H19ZM19 7H5C3.9 7 3 7.9 3 9V23C3 24.1 3.9 25 5 25H19C20.1 25 21 24.1 21 23V9C21 7.9 20.1 7 19 7Z" fill="#CCCCCC"/>
</svg>
