<svg width="141" height="32" viewBox="0 0 141 32" fill="none" xmlns="http://www.w3.org/2000/svg">
<path d="M97.884 23.716H99.55C98.388 21.672 97.898 19.558 97.898 17.164C97.898 14.77 98.388 12.656 99.55 10.612H97.884C96.792 12.278 96.176 14.588 96.176 17.164C96.176 19.74 96.792 22.022 97.884 23.716ZM102.948 19.46L105.566 16.968C106.924 15.694 107.19 14.826 107.19 13.874C107.19 12.138 105.818 11.06 103.69 11.06C102.08 11.06 100.722 11.662 99.9655 12.684L101.24 13.664C101.786 12.964 102.584 12.642 103.536 12.642C104.74 12.642 105.356 13.16 105.356 14.056C105.356 14.602 105.188 15.176 104.236 16.086L100.344 19.782V21H107.568V19.46H102.948ZM112.665 21.14C115.003 21.14 116.767 19.32 116.767 16.1C116.767 12.88 115.003 11.06 112.665 11.06C110.341 11.06 108.577 12.88 108.577 16.1C108.577 19.32 110.341 21.14 112.665 21.14ZM112.665 19.558C111.335 19.558 110.411 18.466 110.411 16.1C110.411 13.734 111.335 12.642 112.665 12.642C114.009 12.642 114.933 13.734 114.933 16.1C114.933 18.466 114.009 19.558 112.665 19.558ZM126.733 17.234H124.997V15.26H123.289V17.234H120.083L124.633 11.2H122.687L117.857 17.514V18.774H123.233V21H124.997V18.774H126.733V17.234ZM130.734 11.06C128.732 11.06 127.15 12.292 127.15 14.238C127.15 16.072 128.592 17.248 130.524 17.248C131.616 17.248 132.554 16.912 133.142 16.226V16.24C133.142 18.466 131.98 19.614 130.132 19.614C129.446 19.614 128.802 19.488 128.27 19.138L127.598 20.51C128.256 20.93 129.194 21.14 130.174 21.14C133.016 21.14 134.976 19.292 134.976 15.932C134.976 12.782 133.408 11.06 130.734 11.06ZM130.874 15.82C129.684 15.82 128.914 15.176 128.914 14.154C128.914 13.132 129.698 12.488 130.832 12.488C132.134 12.488 132.862 13.216 132.862 14.14C132.862 15.106 132.05 15.82 130.874 15.82ZM137.566 23.716C138.672 22.022 139.274 19.74 139.274 17.164C139.274 14.588 138.672 12.278 137.566 10.612H135.9C137.062 12.656 137.566 14.77 137.566 17.164C137.566 19.558 137.062 21.672 135.9 23.716H137.566Z" fill="#808080"/>
<path d="M35.584 20.256V17.168H40.992V15.456H35.584V12.544H41.68V10.8H33.504V22H41.904V20.256H35.584ZM51.5705 22L48.2265 17.632L51.4265 13.456H49.2665L47.1705 16.256L45.0745 13.456H42.8505L46.0345 17.664L42.7065 22H44.9145L47.1225 19.04L49.3145 22H51.5705ZM57.7824 13.36C56.6144 13.36 55.6224 13.76 54.9504 14.576V13.456H53.0464V25.104H55.0464V20.96C55.7344 21.744 56.6944 22.112 57.7824 22.112C60.2784 22.112 62.1184 20.384 62.1184 17.728C62.1184 15.088 60.2784 13.36 57.7824 13.36ZM57.5584 20.4C56.1184 20.4 55.0144 19.36 55.0144 17.728C55.0144 16.096 56.1184 15.056 57.5584 15.056C58.9984 15.056 60.0864 16.096 60.0864 17.728C60.0864 19.36 58.9984 20.4 57.5584 20.4ZM72.0471 17.776C72.0471 15.104 70.2231 13.36 67.7271 13.36C65.1831 13.36 63.3111 15.184 63.3111 17.728C63.3111 20.272 65.1671 22.112 68.0311 22.112C69.5031 22.112 70.7031 21.632 71.4711 20.72L70.3991 19.488C69.7911 20.112 69.0391 20.416 68.0791 20.416C66.5911 20.416 65.5511 19.616 65.3111 18.368H72.0151C72.0311 18.176 72.0471 17.936 72.0471 17.776ZM67.7271 14.96C69.0391 14.96 69.9831 15.808 70.1431 17.04H65.2951C65.4871 15.792 66.4311 14.96 67.7271 14.96ZM75.8723 14.704V13.456H73.9683V22H75.9683V17.856C75.9683 16.112 76.9283 15.216 78.4483 15.216C78.5923 15.216 78.7363 15.232 78.9123 15.264V13.36C77.4883 13.36 76.4483 13.808 75.8723 14.704ZM85.4974 20.112C85.1934 20.352 84.7934 20.464 84.3774 20.464C83.6094 20.464 83.1934 20.016 83.1934 19.184V15.12H85.4814V13.52H83.1934V11.568H81.1934V13.52H79.7854V15.12H81.1934V19.232C81.1934 21.12 82.2654 22.112 84.1374 22.112C84.8574 22.112 85.5774 21.92 86.0574 21.536L85.4974 20.112Z" fill="#1C3554"/>
<path fill-rule="evenodd" clip-rule="evenodd" d="M19 9V23H5V9H19ZM19 7H5C3.9 7 3 7.9 3 9V23C3 24.1 3.9 25 5 25H19C20.1 25 21 24.1 21 23V9C21 7.9 20.1 7 19 7Z" fill="#CCCCCC"/>
</svg>
