<svg width="152" height="32" viewBox="0 0 152 32" fill="none" xmlns="http://www.w3.org/2000/svg">
<path d="M108.884 23.716H110.55C109.388 21.672 108.898 19.558 108.898 17.164C108.898 14.77 109.388 12.656 110.55 10.612H108.884C107.792 12.278 107.176 14.588 107.176 17.164C107.176 19.74 107.792 22.022 108.884 23.716ZM113.948 19.46L116.566 16.968C117.924 15.694 118.19 14.826 118.19 13.874C118.19 12.138 116.818 11.06 114.69 11.06C113.08 11.06 111.722 11.662 110.966 12.684L112.24 13.664C112.786 12.964 113.584 12.642 114.536 12.642C115.74 12.642 116.356 13.16 116.356 14.056C116.356 14.602 116.188 15.176 115.236 16.086L111.344 19.782V21H118.568V19.46H113.948ZM123.665 21.14C126.003 21.14 127.767 19.32 127.767 16.1C127.767 12.88 126.003 11.06 123.665 11.06C121.341 11.06 119.577 12.88 119.577 16.1C119.577 19.32 121.341 21.14 123.665 21.14ZM123.665 19.558C122.335 19.558 121.411 18.466 121.411 16.1C121.411 13.734 122.335 12.642 123.665 12.642C125.009 12.642 125.933 13.734 125.933 16.1C125.933 18.466 125.009 19.558 123.665 19.558ZM137.733 17.234H135.997V15.26H134.289V17.234H131.083L135.633 11.2H133.687L128.857 17.514V18.774H134.233V21H135.997V18.774H137.733V17.234ZM141.734 11.06C139.732 11.06 138.15 12.292 138.15 14.238C138.15 16.072 139.592 17.248 141.524 17.248C142.616 17.248 143.554 16.912 144.142 16.226V16.24C144.142 18.466 142.98 19.614 141.132 19.614C140.446 19.614 139.802 19.488 139.27 19.138L138.598 20.51C139.256 20.93 140.194 21.14 141.174 21.14C144.016 21.14 145.976 19.292 145.976 15.932C145.976 12.782 144.408 11.06 141.734 11.06ZM141.874 15.82C140.684 15.82 139.914 15.176 139.914 14.154C139.914 13.132 140.698 12.488 141.832 12.488C143.134 12.488 143.862 13.216 143.862 14.14C143.862 15.106 143.05 15.82 141.874 15.82ZM148.566 23.716C149.672 22.022 150.274 19.74 150.274 17.164C150.274 14.588 149.672 12.278 148.566 10.612H146.9C148.062 12.656 148.566 14.77 148.566 17.164C148.566 19.558 148.062 21.672 146.9 23.716H148.566Z" fill="#808080"/>
<path d="M35.584 20.256V17.168H40.992V15.456H35.584V12.544H41.68V10.8H33.504V22H41.904V20.256H35.584ZM46.5926 22.112C48.9926 22.112 50.4646 21.072 50.4646 19.472C50.4646 16.128 45.1846 17.664 45.1846 15.936C45.1846 15.376 45.7606 14.976 46.9766 14.976C47.7926 14.976 48.6086 15.136 49.4246 15.616L50.1926 14.096C49.4246 13.632 48.1286 13.36 46.9926 13.36C44.6886 13.36 43.2326 14.416 43.2326 16.032C43.2326 19.44 48.5126 17.904 48.5126 19.536C48.5126 20.128 47.9846 20.48 46.7206 20.48C45.6486 20.48 44.4966 20.128 43.7446 19.632L42.9766 21.152C43.7446 21.696 45.1686 22.112 46.5926 22.112ZM56.923 13.36C55.755 13.36 54.763 13.76 54.091 14.576V13.456H52.187V25.104H54.187V20.96C54.875 21.744 55.835 22.112 56.923 22.112C59.419 22.112 61.259 20.384 61.259 17.728C61.259 15.088 59.419 13.36 56.923 13.36ZM56.699 20.4C55.259 20.4 54.155 19.36 54.155 17.728C54.155 16.096 55.259 15.056 56.699 15.056C58.139 15.056 59.227 16.096 59.227 17.728C59.227 19.36 58.139 20.4 56.699 20.4ZM66.3104 13.36C64.9344 13.36 63.6064 13.712 62.6944 14.416L63.4784 15.872C64.1184 15.344 65.1104 15.024 66.0704 15.024C67.4944 15.024 68.1984 15.712 68.1984 16.88V17.008H65.9904C63.3984 17.008 62.4384 18.128 62.4384 19.552C62.4384 21.04 63.6704 22.112 65.6224 22.112C66.9024 22.112 67.8304 21.696 68.3104 20.96V22H70.1984V16.992C70.1984 14.528 68.7744 13.36 66.3104 13.36ZM66.0384 20.656C65.0144 20.656 64.4064 20.192 64.4064 19.472C64.4064 18.848 64.7744 18.336 66.1344 18.336H68.1984V19.328C67.8624 20.208 67.0144 20.656 66.0384 20.656ZM77.6131 13.36C76.3651 13.36 75.3251 13.776 74.6691 14.56V13.456H72.7651V22H74.7651V17.68C74.7651 15.968 75.7251 15.104 77.1491 15.104C78.4291 15.104 79.1811 15.84 79.1811 17.36V22H81.1811V17.104C81.1811 14.528 79.6611 13.36 77.6131 13.36ZM87.6364 22.112C90.2924 22.112 92.1964 20.288 92.1964 17.728C92.1964 15.168 90.2924 13.36 87.6364 13.36C85.0124 13.36 83.0924 15.168 83.0924 17.728C83.0924 20.288 85.0124 22.112 87.6364 22.112ZM87.6364 20.4C86.1964 20.4 85.1084 19.36 85.1084 17.728C85.1084 16.096 86.1964 15.056 87.6364 15.056C89.0924 15.056 90.1804 16.096 90.1804 17.728C90.1804 19.36 89.0924 20.4 87.6364 20.4ZM94.1089 22H96.1089V10.128H94.1089V22Z" fill="#1C3554"/>
<path fill-rule="evenodd" clip-rule="evenodd" d="M19 9V23H5V9H19ZM19 7H5C3.9 7 3 7.9 3 9V23C3 24.1 3.9 25 5 25H19C20.1 25 21 24.1 21 23V9C21 7.9 20.1 7 19 7Z" fill="#CCCCCC"/>
</svg>
