<svg width="194" height="32" viewBox="0 0 194 32" fill="none" xmlns="http://www.w3.org/2000/svg">
<path d="M150.884 23.716H152.55C151.388 21.672 150.898 19.558 150.898 17.164C150.898 14.77 151.388 12.656 152.55 10.612H150.884C149.792 12.278 149.176 14.588 149.176 17.164C149.176 19.74 149.792 22.022 150.884 23.716ZM155.948 19.46L158.566 16.968C159.924 15.694 160.19 14.826 160.19 13.874C160.19 12.138 158.818 11.06 156.69 11.06C155.08 11.06 153.722 11.662 152.966 12.684L154.24 13.664C154.786 12.964 155.584 12.642 156.536 12.642C157.74 12.642 158.356 13.16 158.356 14.056C158.356 14.602 158.188 15.176 157.236 16.086L153.344 19.782V21H160.568V19.46H155.948ZM165.665 21.14C168.003 21.14 169.767 19.32 169.767 16.1C169.767 12.88 168.003 11.06 165.665 11.06C163.341 11.06 161.577 12.88 161.577 16.1C161.577 19.32 163.341 21.14 165.665 21.14ZM165.665 19.558C164.335 19.558 163.411 18.466 163.411 16.1C163.411 13.734 164.335 12.642 165.665 12.642C167.009 12.642 167.933 13.734 167.933 16.1C167.933 18.466 167.009 19.558 165.665 19.558ZM179.733 17.234H177.997V15.26H176.289V17.234H173.083L177.633 11.2H175.687L170.857 17.514V18.774H176.233V21H177.997V18.774H179.733V17.234ZM183.734 11.06C181.732 11.06 180.15 12.292 180.15 14.238C180.15 16.072 181.592 17.248 183.524 17.248C184.616 17.248 185.554 16.912 186.142 16.226V16.24C186.142 18.466 184.98 19.614 183.132 19.614C182.446 19.614 181.802 19.488 181.27 19.138L180.598 20.51C181.256 20.93 182.194 21.14 183.174 21.14C186.016 21.14 187.976 19.292 187.976 15.932C187.976 12.782 186.408 11.06 183.734 11.06ZM183.874 15.82C182.684 15.82 181.914 15.176 181.914 14.154C181.914 13.132 182.698 12.488 183.832 12.488C185.134 12.488 185.862 13.216 185.862 14.14C185.862 15.106 185.05 15.82 183.874 15.82ZM190.566 23.716C191.672 22.022 192.274 19.74 192.274 17.164C192.274 14.588 191.672 12.278 190.566 10.612H188.9C190.062 12.656 190.566 14.77 190.566 17.164C190.566 19.558 190.062 21.672 188.9 23.716H190.566Z" fill="#808080"/>
<path d="M33.504 22H35.584V10.8H33.504V22ZM43.2694 13.36C42.0214 13.36 40.9814 13.776 40.3254 14.56V13.456H38.4214V22H40.4214V17.68C40.4214 15.968 41.3814 15.104 42.8054 15.104C44.0854 15.104 44.8374 15.84 44.8374 17.36V22H46.8374V17.104C46.8374 14.528 45.3174 13.36 43.2694 13.36ZM53.9505 20.112C53.6465 20.352 53.2465 20.464 52.8305 20.464C52.0625 20.464 51.6465 20.016 51.6465 19.184V15.12H53.9345V13.52H51.6465V11.568H49.6465V13.52H48.2385V15.12H49.6465V19.232C49.6465 21.12 50.7185 22.112 52.5905 22.112C53.3105 22.112 54.0305 21.92 54.5105 21.536L53.9505 20.112ZM63.9065 17.776C63.9065 15.104 62.0825 13.36 59.5865 13.36C57.0425 13.36 55.1705 15.184 55.1705 17.728C55.1705 20.272 57.0265 22.112 59.8905 22.112C61.3625 22.112 62.5625 21.632 63.3305 20.72L62.2585 19.488C61.6505 20.112 60.8985 20.416 59.9385 20.416C58.4505 20.416 57.4105 19.616 57.1705 18.368H63.8745C63.8905 18.176 63.9065 17.936 63.9065 17.776ZM59.5865 14.96C60.8985 14.96 61.8425 15.808 62.0025 17.04H57.1545C57.3465 15.792 58.2905 14.96 59.5865 14.96ZM67.7316 14.704V13.456H65.8276V22H67.8276V17.856C67.8276 16.112 68.7876 15.216 70.3076 15.216C70.4516 15.216 70.5956 15.232 70.7716 15.264V13.36C69.3476 13.36 68.3076 13.808 67.7316 14.704ZM83.2523 13.36C81.8923 13.36 80.7403 13.904 80.0523 14.784C79.4603 13.824 78.4203 13.36 77.1723 13.36C76.0043 13.36 75.0123 13.776 74.3723 14.544V13.456H72.4683V22H74.4683V17.664C74.4683 15.968 75.3643 15.104 76.6923 15.104C77.9083 15.104 78.6123 15.84 78.6123 17.36V22H80.6123V17.664C80.6123 15.968 81.5243 15.104 82.8363 15.104C84.0523 15.104 84.7563 15.84 84.7563 17.36V22H86.7563V17.104C86.7563 14.528 85.3163 13.36 83.2523 13.36ZM97.4221 17.776C97.4221 15.104 95.5981 13.36 93.1021 13.36C90.5581 13.36 88.6861 15.184 88.6861 17.728C88.6861 20.272 90.5421 22.112 93.4061 22.112C94.8781 22.112 96.0781 21.632 96.8461 20.72L95.7741 19.488C95.1661 20.112 94.4141 20.416 93.4541 20.416C91.9661 20.416 90.9261 19.616 90.6861 18.368H97.3901C97.4061 18.176 97.4221 17.936 97.4221 17.776ZM93.1021 14.96C94.4141 14.96 95.3581 15.808 95.5181 17.04H90.6701C90.8621 15.792 91.8061 14.96 93.1021 14.96ZM105.711 10.128V14.512C105.039 13.728 104.063 13.36 102.959 13.36C100.479 13.36 98.6393 15.072 98.6393 17.728C98.6393 20.384 100.479 22.112 102.959 22.112C104.127 22.112 105.119 21.712 105.791 20.896V22H107.711V10.128H105.711ZM103.199 20.4C101.759 20.4 100.655 19.36 100.655 17.728C100.655 16.096 101.759 15.056 103.199 15.056C104.639 15.056 105.743 16.096 105.743 17.728C105.743 19.36 104.639 20.4 103.199 20.4ZM111.336 12.048C112.088 12.048 112.616 11.504 112.616 10.8C112.616 10.144 112.072 9.648 111.336 9.648C110.6 9.648 110.056 10.176 110.056 10.848C110.056 11.52 110.6 12.048 111.336 12.048ZM110.328 22H112.328V13.456H110.328V22ZM118.217 13.36C116.841 13.36 115.513 13.712 114.601 14.416L115.385 15.872C116.025 15.344 117.017 15.024 117.977 15.024C119.401 15.024 120.105 15.712 120.105 16.88V17.008H117.897C115.305 17.008 114.345 18.128 114.345 19.552C114.345 21.04 115.577 22.112 117.529 22.112C118.809 22.112 119.737 21.696 120.217 20.96V22H122.105V16.992C122.105 14.528 120.681 13.36 118.217 13.36ZM117.945 20.656C116.921 20.656 116.313 20.192 116.313 19.472C116.313 18.848 116.681 18.336 118.041 18.336H120.105V19.328C119.769 20.208 118.921 20.656 117.945 20.656ZM129.247 20.112C128.943 20.352 128.543 20.464 128.127 20.464C127.359 20.464 126.943 20.016 126.943 19.184V15.12H129.231V13.52H126.943V11.568H124.943V13.52H123.535V15.12H124.943V19.232C124.943 21.12 126.015 22.112 127.887 22.112C128.607 22.112 129.327 21.92 129.807 21.536L129.247 20.112ZM139.203 17.776C139.203 15.104 137.379 13.36 134.883 13.36C132.339 13.36 130.467 15.184 130.467 17.728C130.467 20.272 132.323 22.112 135.187 22.112C136.659 22.112 137.859 21.632 138.627 20.72L137.555 19.488C136.947 20.112 136.195 20.416 135.235 20.416C133.747 20.416 132.707 19.616 132.467 18.368H139.171C139.187 18.176 139.203 17.936 139.203 17.776ZM134.883 14.96C136.195 14.96 137.139 15.808 137.299 17.04H132.451C132.643 15.792 133.587 14.96 134.883 14.96Z" fill="#1C3554"/>
<path fill-rule="evenodd" clip-rule="evenodd" d="M19 9V23H5V9H19ZM19 7H5C3.9 7 3 7.9 3 9V23C3 24.1 3.9 25 5 25H19C20.1 25 21 24.1 21 23V9C21 7.9 20.1 7 19 7Z" fill="#CCCCCC"/>
</svg>
