<svg width="121" height="32" viewBox="0 0 121 32" fill="none" xmlns="http://www.w3.org/2000/svg">
<path fill-rule="evenodd" clip-rule="evenodd" d="M112 20.0605L105.47 13.5303L106.53 12.4698L112 17.9395L117.47 12.4698L118.53 13.5303L112 20.0605Z" fill="#1C3554"/>
<path d="M4.976 22.16C4.112 22.16 3.27467 22.0373 2.464 21.792C1.664 21.5467 1.02933 21.2213 0.56 20.816L1.28 19.2C1.73867 19.5627 2.29867 19.8613 2.96 20.096C3.632 20.32 4.304 20.432 4.976 20.432C5.808 20.432 6.42667 20.2987 6.832 20.032C7.248 19.7653 7.456 19.4133 7.456 18.976C7.456 18.656 7.33867 18.3947 7.104 18.192C6.88 17.9787 6.592 17.8133 6.24 17.696C5.888 17.5787 5.408 17.4453 4.8 17.296C3.94667 17.0933 3.25333 16.8907 2.72 16.688C2.19733 16.4853 1.744 16.1707 1.36 15.744C0.986667 15.3067 0.8 14.72 0.8 13.984C0.8 13.3653 0.965333 12.8053 1.296 12.304C1.63733 11.792 2.144 11.3867 2.816 11.088C3.49867 10.7893 4.33067 10.64 5.312 10.64C5.99467 10.64 6.66667 10.7253 7.328 10.896C7.98933 11.0667 8.56 11.312 9.04 11.632L8.384 13.248C7.89333 12.96 7.38133 12.7413 6.848 12.592C6.31467 12.4427 5.79733 12.368 5.296 12.368C4.47467 12.368 3.86133 12.5067 3.456 12.784C3.06133 13.0613 2.864 13.4293 2.864 13.888C2.864 14.208 2.976 14.4693 3.2 14.672C3.43467 14.8747 3.728 15.0347 4.08 15.152C4.432 15.2693 4.912 15.4027 5.52 15.552C6.352 15.744 7.03467 15.9467 7.568 16.16C8.10133 16.3627 8.55467 16.6773 8.928 17.104C9.312 17.5307 9.504 18.1067 9.504 18.832C9.504 19.4507 9.33333 20.0107 8.992 20.512C8.66133 21.0133 8.15467 21.4133 7.472 21.712C6.78933 22.0107 5.95733 22.16 4.976 22.16ZM16.2225 13.36C17.2998 13.36 18.1638 13.6747 18.8145 14.304C19.4652 14.9333 19.7905 15.8667 19.7905 17.104V22H17.7905V17.36C17.7905 16.6133 17.6145 16.0533 17.2625 15.68C16.9105 15.296 16.4092 15.104 15.7585 15.104C15.0225 15.104 14.4412 15.328 14.0145 15.776C13.5878 16.2133 13.3745 16.848 13.3745 17.68V22H11.3745V10.128H13.3745V14.448C13.7052 14.096 14.1105 13.8293 14.5905 13.648C15.0812 13.456 15.6252 13.36 16.2225 13.36ZM26.2458 22.112C25.3818 22.112 24.6031 21.9253 23.9098 21.552C23.2164 21.1787 22.6724 20.6613 22.2778 20C21.8938 19.328 21.7018 18.5707 21.7018 17.728C21.7018 16.8853 21.8938 16.1333 22.2778 15.472C22.6724 14.8107 23.2164 14.2933 23.9098 13.92C24.6031 13.5467 25.3818 13.36 26.2458 13.36C27.1204 13.36 27.9044 13.5467 28.5978 13.92C29.2911 14.2933 29.8298 14.8107 30.2138 15.472C30.6084 16.1333 30.8058 16.8853 30.8058 17.728C30.8058 18.5707 30.6084 19.328 30.2138 20C29.8298 20.6613 29.2911 21.1787 28.5978 21.552C27.9044 21.9253 27.1204 22.112 26.2458 22.112ZM26.2458 20.4C26.9818 20.4 27.5898 20.1547 28.0698 19.664C28.5498 19.1733 28.7898 18.528 28.7898 17.728C28.7898 16.928 28.5498 16.2827 28.0698 15.792C27.5898 15.3013 26.9818 15.056 26.2458 15.056C25.5098 15.056 24.9018 15.3013 24.4218 15.792C23.9524 16.2827 23.7178 16.928 23.7178 17.728C23.7178 18.528 23.9524 19.1733 24.4218 19.664C24.9018 20.1547 25.5098 20.4 26.2458 20.4ZM45.8119 13.456L42.6599 22H40.7399L38.5319 16.112L36.2919 22H34.3719L31.2359 13.456H33.1239L35.3799 19.76L37.7319 13.456H39.4119L41.7159 19.792L44.0359 13.456H45.8119ZM62.3929 13.36C63.4702 13.36 64.3235 13.6747 64.9529 14.304C65.5822 14.9227 65.8969 15.856 65.8969 17.104V22H63.8969V17.36C63.8969 16.6133 63.7315 16.0533 63.4009 15.68C63.0702 15.296 62.5955 15.104 61.9769 15.104C61.3049 15.104 60.7662 15.328 60.3609 15.776C59.9555 16.2133 59.7529 16.8427 59.7529 17.664V22H57.7529V17.36C57.7529 16.6133 57.5875 16.0533 57.2569 15.68C56.9262 15.296 56.4515 15.104 55.8329 15.104C55.1502 15.104 54.6062 15.3227 54.2009 15.76C53.8062 16.1973 53.6089 16.832 53.6089 17.664V22H51.6089V13.456H53.5129V14.544C53.8329 14.16 54.2329 13.8667 54.7129 13.664C55.1929 13.4613 55.7262 13.36 56.3129 13.36C56.9529 13.36 57.5182 13.4827 58.0089 13.728C58.5102 13.9627 58.9049 14.3147 59.1929 14.784C59.5449 14.336 59.9982 13.9893 60.5529 13.744C61.1075 13.488 61.7209 13.36 62.3929 13.36ZM72.3708 22.112C71.5068 22.112 70.7281 21.9253 70.0348 21.552C69.3414 21.1787 68.7974 20.6613 68.4028 20C68.0188 19.328 67.8268 18.5707 67.8268 17.728C67.8268 16.8853 68.0188 16.1333 68.4028 15.472C68.7974 14.8107 69.3414 14.2933 70.0348 13.92C70.7281 13.5467 71.5068 13.36 72.3708 13.36C73.2454 13.36 74.0294 13.5467 74.7228 13.92C75.4161 14.2933 75.9548 14.8107 76.3388 15.472C76.7334 16.1333 76.9308 16.8853 76.9308 17.728C76.9308 18.5707 76.7334 19.328 76.3388 20C75.9548 20.6613 75.4161 21.1787 74.7228 21.552C74.0294 21.9253 73.2454 22.112 72.3708 22.112ZM72.3708 20.4C73.1068 20.4 73.7148 20.1547 74.1948 19.664C74.6748 19.1733 74.9148 18.528 74.9148 17.728C74.9148 16.928 74.6748 16.2827 74.1948 15.792C73.7148 15.3013 73.1068 15.056 72.3708 15.056C71.6348 15.056 71.0268 15.3013 70.5468 15.792C70.0774 16.2827 69.8428 16.928 69.8428 17.728C69.8428 18.528 70.0774 19.1733 70.5468 19.664C71.0268 20.1547 71.6348 20.4 72.3708 20.4ZM80.7473 14.704C81.3233 13.808 82.3366 13.36 83.7873 13.36V15.264C83.6166 15.232 83.4619 15.216 83.3233 15.216C82.5446 15.216 81.9366 15.4453 81.4993 15.904C81.0619 16.352 80.8433 17.0027 80.8433 17.856V22H78.8433V13.456H80.7473V14.704ZM93.4378 17.776C93.4378 17.9147 93.4271 18.112 93.4058 18.368H86.7018C86.8191 18.9973 87.1231 19.4987 87.6138 19.872C88.1151 20.2347 88.7338 20.416 89.4698 20.416C90.4084 20.416 91.1818 20.1067 91.7898 19.488L92.8618 20.72C92.4778 21.1787 91.9924 21.5253 91.4058 21.76C90.8191 21.9947 90.1578 22.112 89.4218 22.112C88.4831 22.112 87.6564 21.9253 86.9418 21.552C86.2271 21.1787 85.6724 20.6613 85.2778 20C84.8938 19.328 84.7018 18.5707 84.7018 17.728C84.7018 16.896 84.8884 16.1493 85.2618 15.488C85.6458 14.816 86.1738 14.2933 86.8458 13.92C87.5178 13.5467 88.2751 13.36 89.1178 13.36C89.9498 13.36 90.6911 13.5467 91.3418 13.92C92.0031 14.2827 92.5151 14.8 92.8778 15.472C93.2511 16.1333 93.4378 16.9013 93.4378 17.776ZM89.1178 14.96C88.4778 14.96 87.9338 15.152 87.4858 15.536C87.0484 15.9093 86.7818 16.4107 86.6858 17.04H91.5338C91.4484 16.4213 91.1871 15.92 90.7498 15.536C90.3124 15.152 89.7684 14.96 89.1178 14.96Z" fill="#1C3554"/>
</svg>
