<svg width="162" height="32" viewBox="0 0 162 32" fill="none" xmlns="http://www.w3.org/2000/svg">
<path d="M118.884 23.716H120.55C119.388 21.672 118.898 19.558 118.898 17.164C118.898 14.77 119.388 12.656 120.55 10.612H118.884C117.792 12.278 117.176 14.588 117.176 17.164C117.176 19.74 117.792 22.022 118.884 23.716ZM123.948 19.46L126.566 16.968C127.924 15.694 128.19 14.826 128.19 13.874C128.19 12.138 126.818 11.06 124.69 11.06C123.08 11.06 121.722 11.662 120.966 12.684L122.24 13.664C122.786 12.964 123.584 12.642 124.536 12.642C125.74 12.642 126.356 13.16 126.356 14.056C126.356 14.602 126.188 15.176 125.236 16.086L121.344 19.782V21H128.568V19.46H123.948ZM133.665 21.14C136.003 21.14 137.767 19.32 137.767 16.1C137.767 12.88 136.003 11.06 133.665 11.06C131.341 11.06 129.577 12.88 129.577 16.1C129.577 19.32 131.341 21.14 133.665 21.14ZM133.665 19.558C132.335 19.558 131.411 18.466 131.411 16.1C131.411 13.734 132.335 12.642 133.665 12.642C135.009 12.642 135.933 13.734 135.933 16.1C135.933 18.466 135.009 19.558 133.665 19.558ZM147.733 17.234H145.997V15.26H144.289V17.234H141.083L145.633 11.2H143.687L138.857 17.514V18.774H144.233V21H145.997V18.774H147.733V17.234ZM151.734 11.06C149.732 11.06 148.15 12.292 148.15 14.238C148.15 16.072 149.592 17.248 151.524 17.248C152.616 17.248 153.554 16.912 154.142 16.226V16.24C154.142 18.466 152.98 19.614 151.132 19.614C150.446 19.614 149.802 19.488 149.27 19.138L148.598 20.51C149.256 20.93 150.194 21.14 151.174 21.14C154.016 21.14 155.976 19.292 155.976 15.932C155.976 12.782 154.408 11.06 151.734 11.06ZM151.874 15.82C150.684 15.82 149.914 15.176 149.914 14.154C149.914 13.132 150.698 12.488 151.832 12.488C153.134 12.488 153.862 13.216 153.862 14.14C153.862 15.106 153.05 15.82 151.874 15.82ZM158.566 23.716C159.672 22.022 160.274 19.74 160.274 17.164C160.274 14.588 159.672 12.278 158.566 10.612H156.9C158.062 12.656 158.566 14.77 158.566 17.164C158.566 19.558 158.062 21.672 156.9 23.716H158.566Z" fill="#808080"/>
<path d="M40.44 16.176C41.304 15.712 41.88 14.864 41.88 13.712C41.88 11.936 40.44 10.8 37.752 10.8H32.504V22H38.072C40.952 22 42.456 20.88 42.456 18.96C42.456 17.504 41.64 16.56 40.44 16.176ZM37.528 12.432C38.968 12.432 39.784 12.944 39.784 13.984C39.784 15.008 38.968 15.52 37.528 15.52H34.584V12.432H37.528ZM37.944 20.368H34.584V17.136H37.944C39.512 17.136 40.36 17.632 40.36 18.752C40.36 19.872 39.512 20.368 37.944 20.368ZM52.5159 17.776C52.5159 15.104 50.6919 13.36 48.1959 13.36C45.6519 13.36 43.7799 15.184 43.7799 17.728C43.7799 20.272 45.6359 22.112 48.4999 22.112C49.9719 22.112 51.1719 21.632 51.9399 20.72L50.8679 19.488C50.2599 20.112 49.5079 20.416 48.5479 20.416C47.0599 20.416 46.0199 19.616 45.7799 18.368H52.4839C52.4999 18.176 52.5159 17.936 52.5159 17.776ZM48.1959 14.96C49.5079 14.96 50.4519 15.808 50.6119 17.04H45.7639C45.9559 15.792 46.8999 14.96 48.1959 14.96ZM61.013 13.456V14.592C60.309 13.744 59.253 13.36 58.053 13.36C55.605 13.36 53.733 14.992 53.733 17.472C53.733 19.952 55.605 21.616 58.053 21.616C59.205 21.616 60.213 21.248 60.917 20.48V20.928C60.917 22.656 60.085 23.52 58.197 23.52C57.013 23.52 55.797 23.12 55.045 22.496L54.149 24C55.125 24.8 56.709 25.216 58.309 25.216C61.301 25.216 62.917 23.808 62.917 20.704V13.456H61.013ZM58.357 19.92C56.837 19.92 55.749 18.928 55.749 17.472C55.749 16.032 56.837 15.056 58.357 15.056C59.861 15.056 60.949 16.032 60.949 17.472C60.949 18.928 59.861 19.92 58.357 19.92ZM66.5544 12.048C67.3064 12.048 67.8344 11.504 67.8344 10.8C67.8344 10.144 67.2904 9.648 66.5544 9.648C65.8184 9.648 65.2744 10.176 65.2744 10.848C65.2744 11.52 65.8184 12.048 66.5544 12.048ZM65.5464 22H67.5464V13.456H65.5464V22ZM75.0194 13.36C73.7714 13.36 72.7314 13.776 72.0754 14.56V13.456H70.1714V22H72.1714V17.68C72.1714 15.968 73.1314 15.104 74.5554 15.104C75.8354 15.104 76.5874 15.84 76.5874 17.36V22H78.5874V17.104C78.5874 14.528 77.0674 13.36 75.0194 13.36ZM85.9725 13.36C84.7245 13.36 83.6845 13.776 83.0285 14.56V13.456H81.1245V22H83.1245V17.68C83.1245 15.968 84.0845 15.104 85.5085 15.104C86.7885 15.104 87.5405 15.84 87.5405 17.36V22H89.5405V17.104C89.5405 14.528 88.0205 13.36 85.9725 13.36ZM100.188 17.776C100.188 15.104 98.3638 13.36 95.8678 13.36C93.3238 13.36 91.4518 15.184 91.4518 17.728C91.4518 20.272 93.3078 22.112 96.1718 22.112C97.6438 22.112 98.8438 21.632 99.6118 20.72L98.5398 19.488C97.9318 20.112 97.1798 20.416 96.2198 20.416C94.7318 20.416 93.6918 19.616 93.4518 18.368H100.156C100.172 18.176 100.188 17.936 100.188 17.776ZM95.8678 14.96C97.1798 14.96 98.1238 15.808 98.2838 17.04H93.4358C93.6278 15.792 94.5718 14.96 95.8678 14.96ZM104.013 14.704V13.456H102.109V22H104.109V17.856C104.109 16.112 105.069 15.216 106.589 15.216C106.733 15.216 106.877 15.232 107.053 15.264V13.36C105.629 13.36 104.589 13.808 104.013 14.704Z" fill="#1C3554"/>
<path fill-rule="evenodd" clip-rule="evenodd" d="M19 9V23H5V9H19ZM19 7H5C3.9 7 3 7.9 3 9V23C3 24.1 3.9 25 5 25H19C20.1 25 21 24.1 21 23V9C21 7.9 20.1 7 19 7Z" fill="#CCCCCC"/>
</svg>
