<svg width="161" height="32" viewBox="0 0 161 32" fill="none" xmlns="http://www.w3.org/2000/svg">
<path d="M127.884 23.716H129.55C128.388 21.672 127.898 19.558 127.898 17.164C127.898 14.77 128.388 12.656 129.55 10.612H127.884C126.792 12.278 126.176 14.588 126.176 17.164C126.176 19.74 126.792 22.022 127.884 23.716ZM132.948 19.46L135.566 16.968C136.924 15.694 137.19 14.826 137.19 13.874C137.19 12.138 135.818 11.06 133.69 11.06C132.08 11.06 130.722 11.662 129.966 12.684L131.24 13.664C131.786 12.964 132.584 12.642 133.536 12.642C134.74 12.642 135.356 13.16 135.356 14.056C135.356 14.602 135.188 15.176 134.236 16.086L130.344 19.782V21H137.568V19.46H132.948ZM141.096 19.46L143.714 16.968C145.072 15.694 145.338 14.826 145.338 13.874C145.338 12.138 143.966 11.06 141.838 11.06C140.228 11.06 138.87 11.662 138.114 12.684L139.388 13.664C139.934 12.964 140.732 12.642 141.684 12.642C142.888 12.642 143.504 13.16 143.504 14.056C143.504 14.602 143.336 15.176 142.384 16.086L138.492 19.782V21H145.716V19.46H141.096ZM155.297 17.234H153.561V15.26H151.853V17.234H148.647L153.197 11.2H151.251L146.421 17.514V18.774H151.797V21H153.561V18.774H155.297V17.234ZM157.421 23.716C158.527 22.022 159.129 19.74 159.129 17.164C159.129 14.588 158.527 12.278 157.421 10.612H155.755C156.917 12.656 157.421 14.77 157.421 17.164C157.421 19.558 156.917 21.672 155.755 23.716H157.421Z" fill="#808080"/>
<path d="M37.792 15.088C36.544 15.088 35.472 15.472 34.8 16.256V16.24C34.8 13.696 36.128 12.384 38.24 12.384C39.024 12.384 39.76 12.528 40.368 12.928L41.136 11.36C40.384 10.88 39.312 10.64 38.192 10.64C34.944 10.64 32.704 12.752 32.704 16.592C32.704 20.192 34.496 22.16 37.552 22.16C39.84 22.16 41.648 20.752 41.648 18.528C41.648 16.432 40 15.088 37.792 15.088ZM37.44 20.528C35.952 20.528 35.12 19.696 35.12 18.64C35.12 17.536 36.048 16.72 37.392 16.72C38.752 16.72 39.632 17.456 39.632 18.624C39.632 19.792 38.736 20.528 37.44 20.528ZM42.9894 18.384H47.3894V16.72H42.9894V18.384ZM48.0811 10.8V12.544H50.4491V22H52.5291V10.8H48.0811ZM57.5829 20.24L60.5749 17.392C62.1269 15.936 62.4309 14.944 62.4309 13.856C62.4309 11.872 60.8629 10.64 58.4309 10.64C56.5909 10.64 55.0389 11.328 54.1749 12.496L55.6309 13.616C56.2549 12.816 57.1669 12.448 58.2549 12.448C59.6309 12.448 60.3349 13.04 60.3349 14.064C60.3349 14.688 60.1429 15.344 59.0549 16.384L54.6069 20.608V22H62.8629V20.24H57.5829ZM77.1573 10.8V15.424H71.3653V10.8H69.2853V22H71.3653V17.2H77.1573V22H79.2373V10.8H77.1573ZM85.8864 22.112C88.5424 22.112 90.4464 20.288 90.4464 17.728C90.4464 15.168 88.5424 13.36 85.8864 13.36C83.2624 13.36 81.3424 15.168 81.3424 17.728C81.3424 20.288 83.2624 22.112 85.8864 22.112ZM85.8864 20.4C84.4464 20.4 83.3584 19.36 83.3584 17.728C83.3584 16.096 84.4464 15.056 85.8864 15.056C87.3424 15.056 88.4304 16.096 88.4304 17.728C88.4304 19.36 87.3424 20.4 85.8864 20.4ZM98.6309 13.456V17.776C98.6309 19.488 97.6869 20.352 96.2949 20.352C95.0309 20.352 94.2949 19.616 94.2949 18.064V13.456H92.2949V18.336C92.2949 20.912 93.7829 22.112 95.9749 22.112C97.0789 22.112 98.0869 21.696 98.7269 20.912V22H100.631V13.456H98.6309ZM105.154 14.704V13.456H103.25V22H105.25V17.856C105.25 16.112 106.21 15.216 107.73 15.216C107.874 15.216 108.018 15.232 108.194 15.264V13.36C106.77 13.36 105.73 13.808 105.154 14.704ZM112.561 22.112C114.961 22.112 116.433 21.072 116.433 19.472C116.433 16.128 111.153 17.664 111.153 15.936C111.153 15.376 111.729 14.976 112.945 14.976C113.761 14.976 114.577 15.136 115.393 15.616L116.161 14.096C115.393 13.632 114.097 13.36 112.961 13.36C110.657 13.36 109.201 14.416 109.201 16.032C109.201 19.44 114.481 17.904 114.481 19.536C114.481 20.128 113.953 20.48 112.689 20.48C111.617 20.48 110.465 20.128 109.713 19.632L108.945 21.152C109.713 21.696 111.137 22.112 112.561 22.112Z" fill="#1C3554"/>
<path fill-rule="evenodd" clip-rule="evenodd" d="M19 9V23H5V9H19ZM19 7H5C3.9 7 3 7.9 3 9V23C3 24.1 3.9 25 5 25H19C20.1 25 21 24.1 21 23V9C21 7.9 20.1 7 19 7Z" fill="#CCCCCC"/>
</svg>
