<svg width="118" height="32" viewBox="0 0 118 32" fill="none" xmlns="http://www.w3.org/2000/svg">
<path d="M79.884 23.716H81.55C80.388 21.672 79.898 19.558 79.898 17.164C79.898 14.77 80.388 12.656 81.55 10.612H79.884C78.792 12.278 78.176 14.588 78.176 17.164C78.176 19.74 78.792 22.022 79.884 23.716ZM84.9475 19.46L87.5655 16.968C88.9235 15.694 89.1895 14.826 89.1895 13.874C89.1895 12.138 87.8175 11.06 85.6895 11.06C84.0795 11.06 82.7215 11.662 81.9655 12.684L83.2395 13.664C83.7855 12.964 84.5835 12.642 85.5355 12.642C86.7395 12.642 87.3555 13.16 87.3555 14.056C87.3555 14.602 87.1875 15.176 86.2355 16.086L82.3435 19.782V21H89.5675V19.46H84.9475ZM90.114 11.2V12.726H92.186V21H94.006V11.2H90.114ZM104.686 17.234H102.95V15.26H101.242V17.234H98.036L102.586 11.2H100.64L95.81 17.514V18.774H101.186V21H102.95V18.774H104.686V17.234ZM108.477 14.994H107.539L107.749 12.726H111.963V11.2H106.209L105.705 16.534H108.071C110.101 16.534 110.703 17.122 110.703 18.06C110.703 18.984 109.933 19.558 108.631 19.558C107.525 19.558 106.461 19.18 105.747 18.592L104.977 20.006C105.873 20.72 107.273 21.14 108.659 21.14C111.291 21.14 112.537 19.712 112.537 17.99C112.537 16.254 111.375 14.994 108.477 14.994ZM114.945 23.716C116.051 22.022 116.653 19.74 116.653 17.164C116.653 14.588 116.051 12.278 114.945 10.612H113.279C114.441 12.656 114.945 14.77 114.945 17.164C114.945 19.558 114.441 21.672 113.279 23.716H114.945Z" fill="#808080"/>
<path d="M35.248 22.16C37.712 22.16 39.024 20.864 39.024 18.224V10.8H32.96V12.544H36.944V18.336C36.944 19.712 36.352 20.4 35.2 20.4C34.32 20.4 33.584 19.952 32.976 19.12L31.792 20.544C32.56 21.584 33.84 22.16 35.248 22.16ZM45.0135 13.36C43.6375 13.36 42.3095 13.712 41.3975 14.416L42.1815 15.872C42.8215 15.344 43.8135 15.024 44.7735 15.024C46.1975 15.024 46.9015 15.712 46.9015 16.88V17.008H44.6935C42.1015 17.008 41.1415 18.128 41.1415 19.552C41.1415 21.04 42.3735 22.112 44.3255 22.112C45.6055 22.112 46.5335 21.696 47.0135 20.96V22H48.9015V16.992C48.9015 14.528 47.4775 13.36 45.0135 13.36ZM44.7415 20.656C43.7175 20.656 43.1095 20.192 43.1095 19.472C43.1095 18.848 43.4775 18.336 44.8375 18.336H46.9015V19.328C46.5655 20.208 45.7175 20.656 44.7415 20.656ZM57.392 13.456L54.656 19.792L52 13.456H49.92L53.584 22H55.648L59.312 13.456H57.392ZM63.5604 13.36C62.1844 13.36 60.8564 13.712 59.9444 14.416L60.7284 15.872C61.3684 15.344 62.3604 15.024 63.3204 15.024C64.7444 15.024 65.4484 15.712 65.4484 16.88V17.008H63.2404C60.6484 17.008 59.6884 18.128 59.6884 19.552C59.6884 21.04 60.9204 22.112 62.8724 22.112C64.1524 22.112 65.0804 21.696 65.5604 20.96V22H67.4484V16.992C67.4484 14.528 66.0244 13.36 63.5604 13.36ZM63.2884 20.656C62.2644 20.656 61.6564 20.192 61.6564 19.472C61.6564 18.848 62.0244 18.336 63.3844 18.336H65.4484V19.328C65.1124 20.208 64.2644 20.656 63.2884 20.656Z" fill="#1C3554"/>
<path fill-rule="evenodd" clip-rule="evenodd" d="M19 9V23H5V9H19ZM19 7H5C3.9 7 3 7.9 3 9V23C3 24.1 3.9 25 5 25H19C20.1 25 21 24.1 21 23V9C21 7.9 20.1 7 19 7Z" fill="#CCCCCC"/>
</svg>
