<svg width="232" height="32" viewBox="0 0 232 32" fill="none" xmlns="http://www.w3.org/2000/svg">
<path d="M188.884 23.716H190.55C189.388 21.672 188.898 19.558 188.898 17.164C188.898 14.77 189.388 12.656 190.55 10.612H188.884C187.792 12.278 187.176 14.588 187.176 17.164C187.176 19.74 187.792 22.022 188.884 23.716ZM193.948 19.46L196.566 16.968C197.924 15.694 198.19 14.826 198.19 13.874C198.19 12.138 196.818 11.06 194.69 11.06C193.08 11.06 191.722 11.662 190.966 12.684L192.24 13.664C192.786 12.964 193.584 12.642 194.536 12.642C195.74 12.642 196.356 13.16 196.356 14.056C196.356 14.602 196.188 15.176 195.236 16.086L191.344 19.782V21H198.568V19.46H193.948ZM203.665 21.14C206.003 21.14 207.767 19.32 207.767 16.1C207.767 12.88 206.003 11.06 203.665 11.06C201.341 11.06 199.577 12.88 199.577 16.1C199.577 19.32 201.341 21.14 203.665 21.14ZM203.665 19.558C202.335 19.558 201.411 18.466 201.411 16.1C201.411 13.734 202.335 12.642 203.665 12.642C205.009 12.642 205.933 13.734 205.933 16.1C205.933 18.466 205.009 19.558 203.665 19.558ZM217.733 17.234H215.997V15.26H214.289V17.234H211.083L215.633 11.2H213.687L208.857 17.514V18.774H214.233V21H215.997V18.774H217.733V17.234ZM221.734 11.06C219.732 11.06 218.15 12.292 218.15 14.238C218.15 16.072 219.592 17.248 221.524 17.248C222.616 17.248 223.554 16.912 224.142 16.226V16.24C224.142 18.466 222.98 19.614 221.132 19.614C220.446 19.614 219.802 19.488 219.27 19.138L218.598 20.51C219.256 20.93 220.194 21.14 221.174 21.14C224.016 21.14 225.976 19.292 225.976 15.932C225.976 12.782 224.408 11.06 221.734 11.06ZM221.874 15.82C220.684 15.82 219.914 15.176 219.914 14.154C219.914 13.132 220.698 12.488 221.832 12.488C223.134 12.488 223.862 13.216 223.862 14.14C223.862 15.106 223.05 15.82 221.874 15.82ZM228.566 23.716C229.672 22.022 230.274 19.74 230.274 17.164C230.274 14.588 229.672 12.278 228.566 10.612H226.9C228.062 12.656 228.566 14.77 228.566 17.164C228.566 19.558 228.062 21.672 226.9 23.716H228.566Z" fill="#808080"/>
<path d="M41.44 16.176C42.304 15.712 42.88 14.864 42.88 13.712C42.88 11.936 41.44 10.8 38.752 10.8H33.504V22H39.072C41.952 22 43.456 20.88 43.456 18.96C43.456 17.504 42.64 16.56 41.44 16.176ZM38.528 12.432C39.968 12.432 40.784 12.944 40.784 13.984C40.784 15.008 39.968 15.52 38.528 15.52H35.584V12.432H38.528ZM38.944 20.368H35.584V17.136H38.944C40.512 17.136 41.36 17.632 41.36 18.752C41.36 19.872 40.512 20.368 38.944 20.368ZM48.7479 13.36C47.3719 13.36 46.0439 13.712 45.1319 14.416L45.9159 15.872C46.5559 15.344 47.5479 15.024 48.5079 15.024C49.9319 15.024 50.6359 15.712 50.6359 16.88V17.008H48.4279C45.8359 17.008 44.8759 18.128 44.8759 19.552C44.8759 21.04 46.1079 22.112 48.0599 22.112C49.3399 22.112 50.2679 21.696 50.7479 20.96V22H52.6359V16.992C52.6359 14.528 51.2119 13.36 48.7479 13.36ZM48.4759 20.656C47.4519 20.656 46.8439 20.192 46.8439 19.472C46.8439 18.848 47.2119 18.336 48.5719 18.336H50.6359V19.328C50.2999 20.208 49.4519 20.656 48.4759 20.656ZM60.0506 13.36C58.8666 13.36 57.8586 13.744 57.2026 14.448V10.128H55.2026V22H57.2026V17.68C57.2026 15.968 58.1626 15.104 59.5866 15.104C60.8666 15.104 61.6186 15.84 61.6186 17.36V22H63.6186V17.104C63.6186 14.528 62.0986 13.36 60.0506 13.36ZM69.4198 13.36C68.0438 13.36 66.7158 13.712 65.8038 14.416L66.5878 15.872C67.2278 15.344 68.2198 15.024 69.1798 15.024C70.6038 15.024 71.3078 15.712 71.3078 16.88V17.008H69.0998C66.5078 17.008 65.5478 18.128 65.5478 19.552C65.5478 21.04 66.7798 22.112 68.7318 22.112C70.0118 22.112 70.9398 21.696 71.4198 20.96V22H73.3078V16.992C73.3078 14.528 71.8838 13.36 69.4198 13.36ZM69.1478 20.656C68.1238 20.656 67.5158 20.192 67.5158 19.472C67.5158 18.848 67.8838 18.336 69.2438 18.336H71.3078V19.328C70.9718 20.208 70.1238 20.656 69.1478 20.656ZM78.5145 22.112C80.9145 22.112 82.3865 21.072 82.3865 19.472C82.3865 16.128 77.1065 17.664 77.1065 15.936C77.1065 15.376 77.6825 14.976 78.8985 14.976C79.7145 14.976 80.5305 15.136 81.3465 15.616L82.1145 14.096C81.3465 13.632 80.0505 13.36 78.9145 13.36C76.6105 13.36 75.1545 14.416 75.1545 16.032C75.1545 19.44 80.4345 17.904 80.4345 19.536C80.4345 20.128 79.9065 20.48 78.6425 20.48C77.5705 20.48 76.4185 20.128 75.6665 19.632L74.8985 21.152C75.6665 21.696 77.0905 22.112 78.5145 22.112ZM87.3729 13.36C85.9969 13.36 84.6689 13.712 83.7569 14.416L84.5409 15.872C85.1809 15.344 86.1729 15.024 87.1329 15.024C88.5569 15.024 89.2609 15.712 89.2609 16.88V17.008H87.0529C84.4609 17.008 83.5009 18.128 83.5009 19.552C83.5009 21.04 84.7329 22.112 86.6849 22.112C87.9649 22.112 88.8929 21.696 89.3729 20.96V22H91.2609V16.992C91.2609 14.528 89.8369 13.36 87.3729 13.36ZM87.1009 20.656C86.0769 20.656 85.4689 20.192 85.4689 19.472C85.4689 18.848 85.8369 18.336 87.1969 18.336H89.2609V19.328C88.9249 20.208 88.0769 20.656 87.1009 20.656ZM98.4415 22H100.522V10.8H98.4415V22ZM108.207 13.36C106.959 13.36 105.919 13.776 105.263 14.56V13.456H103.359V22H105.359V17.68C105.359 15.968 106.319 15.104 107.743 15.104C109.023 15.104 109.775 15.84 109.775 17.36V22H111.775V17.104C111.775 14.528 110.255 13.36 108.207 13.36ZM120.758 10.128V14.512C120.086 13.728 119.11 13.36 118.006 13.36C115.526 13.36 113.686 15.072 113.686 17.728C113.686 20.384 115.526 22.112 118.006 22.112C119.174 22.112 120.166 21.712 120.838 20.896V22H122.758V10.128H120.758ZM118.246 20.4C116.806 20.4 115.702 19.36 115.702 17.728C115.702 16.096 116.806 15.056 118.246 15.056C119.686 15.056 120.79 16.096 120.79 17.728C120.79 19.36 119.686 20.4 118.246 20.4ZM129.215 22.112C131.871 22.112 133.775 20.288 133.775 17.728C133.775 15.168 131.871 13.36 129.215 13.36C126.591 13.36 124.671 15.168 124.671 17.728C124.671 20.288 126.591 22.112 129.215 22.112ZM129.215 20.4C127.775 20.4 126.687 19.36 126.687 17.728C126.687 16.096 127.775 15.056 129.215 15.056C130.671 15.056 131.759 16.096 131.759 17.728C131.759 19.36 130.671 20.4 129.215 20.4ZM140.535 13.36C139.287 13.36 138.247 13.776 137.591 14.56V13.456H135.687V22H137.687V17.68C137.687 15.968 138.647 15.104 140.071 15.104C141.351 15.104 142.103 15.84 142.103 17.36V22H144.103V17.104C144.103 14.528 142.583 13.36 140.535 13.36ZM154.75 17.776C154.75 15.104 152.926 13.36 150.43 13.36C147.886 13.36 146.014 15.184 146.014 17.728C146.014 20.272 147.87 22.112 150.734 22.112C152.206 22.112 153.406 21.632 154.174 20.72L153.102 19.488C152.494 20.112 151.742 20.416 150.782 20.416C149.294 20.416 148.254 19.616 148.014 18.368H154.718C154.734 18.176 154.75 17.936 154.75 17.776ZM150.43 14.96C151.742 14.96 152.686 15.808 152.846 17.04H147.998C148.19 15.792 149.134 14.96 150.43 14.96ZM159.311 22.112C161.711 22.112 163.183 21.072 163.183 19.472C163.183 16.128 157.903 17.664 157.903 15.936C157.903 15.376 158.479 14.976 159.695 14.976C160.511 14.976 161.327 15.136 162.143 15.616L162.911 14.096C162.143 13.632 160.847 13.36 159.711 13.36C157.407 13.36 155.951 14.416 155.951 16.032C155.951 19.44 161.231 17.904 161.231 19.536C161.231 20.128 160.703 20.48 159.439 20.48C158.367 20.48 157.215 20.128 156.463 19.632L155.695 21.152C156.463 21.696 157.887 22.112 159.311 22.112ZM165.914 12.048C166.666 12.048 167.194 11.504 167.194 10.8C167.194 10.144 166.65 9.648 165.914 9.648C165.178 9.648 164.634 10.176 164.634 10.848C164.634 11.52 165.178 12.048 165.914 12.048ZM164.906 22H166.906V13.456H164.906V22ZM172.795 13.36C171.419 13.36 170.091 13.712 169.179 14.416L169.963 15.872C170.603 15.344 171.595 15.024 172.555 15.024C173.979 15.024 174.683 15.712 174.683 16.88V17.008H172.475C169.883 17.008 168.923 18.128 168.923 19.552C168.923 21.04 170.155 22.112 172.107 22.112C173.387 22.112 174.315 21.696 174.795 20.96V22H176.683V16.992C176.683 14.528 175.259 13.36 172.795 13.36ZM172.523 20.656C171.499 20.656 170.891 20.192 170.891 19.472C170.891 18.848 171.259 18.336 172.619 18.336H174.683V19.328C174.347 20.208 173.499 20.656 172.523 20.656Z" fill="#1C3554"/>
<path fill-rule="evenodd" clip-rule="evenodd" d="M19 9V23H5V9H19ZM19 7H5C3.9 7 3 7.9 3 9V23C3 24.1 3.9 25 5 25H19C20.1 25 21 24.1 21 23V9C21 7.9 20.1 7 19 7Z" fill="#CCCCCC"/>
</svg>
