<svg width="233" height="32" viewBox="0 0 233 32" fill="none" xmlns="http://www.w3.org/2000/svg">
<path d="M2.28 24C2.104 24 1.96 23.944 1.848 23.832C1.736 23.704 1.68 23.56 1.68 23.4V7.8C1.68 7.624 1.736 7.48 1.848 7.368C1.96 7.256 2.104 7.2 2.28 7.2H13.32C13.496 7.2 13.64 7.256 13.752 7.368C13.864 7.48 13.92 7.624 13.92 7.8V10.224C13.92 10.4 13.864 10.544 13.752 10.656C13.64 10.768 13.496 10.824 13.32 10.824H5.904V14.352H12.84C13.016 14.352 13.16 14.416 13.272 14.544C13.384 14.656 13.44 14.8 13.44 14.976V17.376C13.44 17.536 13.384 17.68 13.272 17.808C13.16 17.92 13.016 17.976 12.84 17.976H5.904V23.4C5.904 23.56 5.848 23.704 5.736 23.832C5.624 23.944 5.48 24 5.304 24H2.28ZM21.801 24.24C19.913 24.24 18.409 23.728 17.289 22.704C16.169 21.68 15.585 20.16 15.537 18.144C15.537 18.032 15.537 17.888 15.537 17.712C15.537 17.536 15.537 17.4 15.537 17.304C15.585 16.04 15.865 14.96 16.377 14.064C16.905 13.152 17.625 12.464 18.537 12C19.465 11.52 20.545 11.28 21.777 11.28C23.185 11.28 24.345 11.56 25.257 12.12C26.185 12.68 26.881 13.44 27.345 14.4C27.809 15.36 28.041 16.456 28.041 17.688V18.264C28.041 18.44 27.985 18.584 27.873 18.696C27.761 18.808 27.617 18.864 27.441 18.864H19.761C19.761 18.88 19.761 18.904 19.761 18.936C19.761 18.968 19.761 19 19.761 19.032C19.777 19.496 19.857 19.92 20.001 20.304C20.161 20.688 20.385 20.992 20.673 21.216C20.977 21.44 21.345 21.552 21.777 21.552C22.097 21.552 22.361 21.504 22.569 21.408C22.793 21.296 22.977 21.176 23.121 21.048C23.265 20.904 23.377 20.784 23.457 20.688C23.601 20.512 23.713 20.408 23.793 20.376C23.889 20.328 24.033 20.304 24.225 20.304H27.201C27.361 20.304 27.489 20.352 27.585 20.448C27.697 20.544 27.745 20.672 27.729 20.832C27.713 21.104 27.577 21.432 27.321 21.816C27.065 22.2 26.689 22.584 26.193 22.968C25.713 23.336 25.105 23.64 24.369 23.88C23.633 24.12 22.777 24.24 21.801 24.24ZM19.761 16.488H23.817V16.44C23.817 15.912 23.737 15.464 23.577 15.096C23.433 14.712 23.201 14.416 22.881 14.208C22.577 14 22.209 13.896 21.777 13.896C21.361 13.896 21.001 14 20.697 14.208C20.393 14.416 20.161 14.712 20.001 15.096C19.841 15.464 19.761 15.912 19.761 16.44V16.488ZM34.035 24.24C33.171 24.24 32.395 24.08 31.707 23.76C31.035 23.424 30.499 22.976 30.099 22.416C29.699 21.856 29.499 21.224 29.499 20.52C29.499 19.384 29.963 18.488 30.891 17.832C31.819 17.16 33.051 16.704 34.587 16.464L37.587 16.008V15.672C37.587 15.096 37.467 14.656 37.227 14.352C36.987 14.048 36.547 13.896 35.907 13.896C35.459 13.896 35.091 13.984 34.803 14.16C34.531 14.336 34.315 14.576 34.155 14.88C34.011 15.088 33.811 15.192 33.555 15.192H30.867C30.691 15.192 30.555 15.144 30.459 15.048C30.363 14.936 30.323 14.808 30.339 14.664C30.339 14.376 30.443 14.048 30.651 13.68C30.875 13.296 31.211 12.92 31.659 12.552C32.107 12.184 32.683 11.88 33.387 11.64C34.091 11.4 34.947 11.28 35.955 11.28C36.979 11.28 37.859 11.4 38.595 11.64C39.331 11.88 39.931 12.216 40.395 12.648C40.859 13.08 41.195 13.592 41.403 14.184C41.627 14.76 41.739 15.4 41.739 16.104V23.4C41.739 23.56 41.675 23.704 41.547 23.832C41.435 23.944 41.299 24 41.139 24H38.355C38.179 24 38.035 23.944 37.923 23.832C37.811 23.704 37.755 23.56 37.755 23.4V22.56C37.547 22.864 37.267 23.144 36.915 23.4C36.563 23.656 36.147 23.856 35.667 24C35.203 24.16 34.659 24.24 34.035 24.24ZM35.163 21.504C35.627 21.504 36.043 21.408 36.411 21.216C36.795 21.008 37.091 20.696 37.299 20.28C37.523 19.848 37.635 19.312 37.635 18.672V18.336L35.595 18.696C34.843 18.824 34.291 19.024 33.939 19.296C33.603 19.552 33.435 19.856 33.435 20.208C33.435 20.48 33.515 20.712 33.675 20.904C33.835 21.096 34.043 21.248 34.299 21.36C34.571 21.456 34.859 21.504 35.163 21.504ZM50.7375 24C49.7135 24 48.8255 23.84 48.0735 23.52C47.3375 23.184 46.7695 22.672 46.3695 21.984C45.9695 21.28 45.7695 20.376 45.7695 19.272V14.664H43.8975C43.7215 14.664 43.5695 14.608 43.4415 14.496C43.3295 14.384 43.2735 14.24 43.2735 14.064V12.12C43.2735 11.944 43.3295 11.8 43.4415 11.688C43.5695 11.576 43.7215 11.52 43.8975 11.52H45.7695V7.56C45.7695 7.384 45.8255 7.24 45.9375 7.128C46.0655 7.016 46.2095 6.96 46.3695 6.96H49.1535C49.3295 6.96 49.4735 7.016 49.5855 7.128C49.6975 7.24 49.7535 7.384 49.7535 7.56V11.52H52.7535C52.9295 11.52 53.0735 11.576 53.1855 11.688C53.3135 11.8 53.3775 11.944 53.3775 12.12V14.064C53.3775 14.24 53.3135 14.384 53.1855 14.496C53.0735 14.608 52.9295 14.664 52.7535 14.664H49.7535V18.936C49.7535 19.48 49.8575 19.912 50.0655 20.232C50.2735 20.552 50.6255 20.712 51.1215 20.712H52.9695C53.1455 20.712 53.2895 20.768 53.4015 20.88C53.5135 20.992 53.5695 21.136 53.5695 21.312V23.4C53.5695 23.56 53.5135 23.704 53.4015 23.832C53.2895 23.944 53.1455 24 52.9695 24H50.7375ZM60.1406 24.24C59.2286 24.24 58.4126 24.032 57.6926 23.616C56.9886 23.2 56.4366 22.592 56.0366 21.792C55.6366 20.976 55.4366 19.984 55.4366 18.816V12.12C55.4366 11.944 55.4926 11.8 55.6046 11.688C55.7166 11.576 55.8606 11.52 56.0366 11.52H59.0366C59.2126 11.52 59.3566 11.576 59.4686 11.688C59.5966 11.8 59.6606 11.944 59.6606 12.12V18.672C59.6606 20.24 60.3566 21.024 61.7486 21.024C62.4046 21.024 62.9246 20.824 63.3086 20.424C63.7086 20.008 63.9086 19.424 63.9086 18.672V12.12C63.9086 11.944 63.9646 11.8 64.0766 11.688C64.1886 11.576 64.3326 11.52 64.5086 11.52H67.5086C67.6846 11.52 67.8286 11.576 67.9406 11.688C68.0526 11.8 68.1086 11.944 68.1086 12.12V23.4C68.1086 23.56 68.0526 23.704 67.9406 23.832C67.8286 23.944 67.6846 24 67.5086 24H64.7246C64.5646 24 64.4206 23.944 64.2926 23.832C64.1806 23.704 64.1246 23.56 64.1246 23.4V22.488C63.7086 23.064 63.1646 23.504 62.4926 23.808C61.8366 24.096 61.0526 24.24 60.1406 24.24ZM71.5316 24C71.3556 24 71.2116 23.944 71.0996 23.832C70.9876 23.704 70.9316 23.56 70.9316 23.4V12.12C70.9316 11.96 70.9876 11.824 71.0996 11.712C71.2116 11.584 71.3556 11.52 71.5316 11.52H74.2916C74.4676 11.52 74.6116 11.584 74.7236 11.712C74.8516 11.824 74.9156 11.96 74.9156 12.12V13.08C75.3316 12.584 75.8356 12.2 76.4276 11.928C77.0356 11.656 77.7156 11.52 78.4676 11.52H79.5236C79.6996 11.52 79.8436 11.576 79.9556 11.688C80.0676 11.8 80.1236 11.944 80.1236 12.12V14.592C80.1236 14.752 80.0676 14.896 79.9556 15.024C79.8436 15.136 79.6996 15.192 79.5236 15.192H77.1956C76.5396 15.192 76.0276 15.376 75.6596 15.744C75.3076 16.096 75.1316 16.6 75.1316 17.256V23.4C75.1316 23.56 75.0676 23.704 74.9396 23.832C74.8276 23.944 74.6836 24 74.5076 24H71.5316ZM87.4963 24.24C85.6083 24.24 84.1043 23.728 82.9843 22.704C81.8643 21.68 81.2803 20.16 81.2323 18.144C81.2323 18.032 81.2323 17.888 81.2323 17.712C81.2323 17.536 81.2323 17.4 81.2323 17.304C81.2803 16.04 81.5603 14.96 82.0723 14.064C82.6003 13.152 83.3203 12.464 84.2323 12C85.1603 11.52 86.2403 11.28 87.4723 11.28C88.8803 11.28 90.0403 11.56 90.9523 12.12C91.8803 12.68 92.5763 13.44 93.0403 14.4C93.5043 15.36 93.7363 16.456 93.7363 17.688V18.264C93.7363 18.44 93.6803 18.584 93.5683 18.696C93.4563 18.808 93.3123 18.864 93.1363 18.864H85.4563C85.4563 18.88 85.4563 18.904 85.4563 18.936C85.4563 18.968 85.4563 19 85.4563 19.032C85.4723 19.496 85.5523 19.92 85.6963 20.304C85.8563 20.688 86.0803 20.992 86.3683 21.216C86.6723 21.44 87.0403 21.552 87.4723 21.552C87.7923 21.552 88.0563 21.504 88.2643 21.408C88.4883 21.296 88.6723 21.176 88.8163 21.048C88.9603 20.904 89.0723 20.784 89.1523 20.688C89.2963 20.512 89.4083 20.408 89.4883 20.376C89.5843 20.328 89.7283 20.304 89.9203 20.304H92.8963C93.0563 20.304 93.1843 20.352 93.2803 20.448C93.3923 20.544 93.4403 20.672 93.4243 20.832C93.4083 21.104 93.2723 21.432 93.0163 21.816C92.7603 22.2 92.3843 22.584 91.8883 22.968C91.4083 23.336 90.8003 23.64 90.0643 23.88C89.3283 24.12 88.4723 24.24 87.4963 24.24ZM85.4563 16.488H89.5123V16.44C89.5123 15.912 89.4323 15.464 89.2723 15.096C89.1283 14.712 88.8963 14.416 88.5763 14.208C88.2723 14 87.9043 13.896 87.4723 13.896C87.0563 13.896 86.6963 14 86.3923 14.208C86.0883 14.416 85.8563 14.712 85.6963 15.096C85.5363 15.464 85.4563 15.912 85.4563 16.44V16.488ZM101.122 24.24C100.082 24.24 99.1943 24.128 98.4583 23.904C97.7383 23.664 97.1463 23.376 96.6823 23.04C96.2343 22.704 95.8983 22.36 95.6743 22.008C95.4503 21.64 95.3303 21.32 95.3143 21.048C95.2983 20.872 95.3543 20.728 95.4823 20.616C95.6103 20.504 95.7463 20.448 95.8903 20.448H98.6263C98.6743 20.448 98.7143 20.456 98.7463 20.472C98.7943 20.488 98.8423 20.52 98.8903 20.568C99.0983 20.68 99.3063 20.824 99.5143 21C99.7223 21.16 99.9623 21.304 100.234 21.432C100.506 21.56 100.834 21.624 101.218 21.624C101.666 21.624 102.042 21.536 102.346 21.36C102.65 21.168 102.802 20.904 102.802 20.568C102.802 20.312 102.73 20.104 102.586 19.944C102.442 19.768 102.146 19.6 101.698 19.44C101.266 19.28 100.61 19.12 99.7303 18.96C98.8983 18.768 98.1703 18.52 97.5463 18.216C96.9223 17.896 96.4423 17.488 96.1063 16.992C95.7703 16.48 95.6023 15.864 95.6023 15.144C95.6023 14.504 95.8103 13.888 96.2263 13.296C96.6423 12.704 97.2503 12.224 98.0503 11.856C98.8503 11.472 99.8423 11.28 101.026 11.28C101.938 11.28 102.738 11.392 103.426 11.616C104.114 11.824 104.69 12.096 105.154 12.432C105.618 12.768 105.97 13.112 106.21 13.464C106.45 13.816 106.578 14.136 106.594 14.424C106.61 14.584 106.562 14.728 106.45 14.856C106.338 14.968 106.21 15.024 106.066 15.024H103.57C103.506 15.024 103.442 15.016 103.378 15C103.314 14.968 103.258 14.936 103.21 14.904C103.018 14.808 102.826 14.68 102.634 14.52C102.442 14.36 102.218 14.216 101.962 14.088C101.706 13.96 101.386 13.896 101.002 13.896C100.57 13.896 100.234 13.992 99.9943 14.184C99.7543 14.376 99.6343 14.624 99.6343 14.928C99.6343 15.136 99.6983 15.328 99.8263 15.504C99.9703 15.68 100.25 15.84 100.666 15.984C101.098 16.128 101.762 16.288 102.658 16.464C103.762 16.64 104.642 16.928 105.298 17.328C105.954 17.712 106.418 18.168 106.69 18.696C106.978 19.208 107.122 19.752 107.122 20.328C107.122 21.096 106.89 21.776 106.426 22.368C105.962 22.96 105.282 23.424 104.386 23.76C103.506 24.08 102.418 24.24 101.122 24.24Z" fill="#1C3554"/>
<path fill-rule="evenodd" clip-rule="evenodd" d="M217 23.2187L205.391 11.6093L207.276 9.724L217 19.448L226.724 9.724L228.609 11.6093L217 23.2187Z" fill="#1C3554"/>
</svg>
