<svg width="242" height="176" viewBox="0 0 242 176" fill="none" xmlns="http://www.w3.org/2000/svg">
<path d="M97.884 167.716H99.55C98.388 165.672 97.898 163.558 97.898 161.164C97.898 158.77 98.388 156.656 99.55 154.612H97.884C96.792 156.278 96.176 158.588 96.176 161.164C96.176 163.74 96.792 166.022 97.884 167.716ZM102.948 163.46L105.566 160.968C106.924 159.694 107.19 158.826 107.19 157.874C107.19 156.138 105.818 155.06 103.69 155.06C102.08 155.06 100.722 155.662 99.9655 156.684L101.24 157.664C101.786 156.964 102.584 156.642 103.536 156.642C104.74 156.642 105.356 157.16 105.356 158.056C105.356 158.602 105.188 159.176 104.236 160.086L100.344 163.782V165H107.568V163.46H102.948ZM112.665 165.14C115.003 165.14 116.767 163.32 116.767 160.1C116.767 156.88 115.003 155.06 112.665 155.06C110.341 155.06 108.577 156.88 108.577 160.1C108.577 163.32 110.341 165.14 112.665 165.14ZM112.665 163.558C111.335 163.558 110.411 162.466 110.411 160.1C110.411 157.734 111.335 156.642 112.665 156.642C114.009 156.642 114.933 157.734 114.933 160.1C114.933 162.466 114.009 163.558 112.665 163.558ZM126.733 161.234H124.997V159.26H123.289V161.234H120.083L124.633 155.2H122.687L117.857 161.514V162.774H123.233V165H124.997V162.774H126.733V161.234ZM130.734 155.06C128.732 155.06 127.15 156.292 127.15 158.238C127.15 160.072 128.592 161.248 130.524 161.248C131.616 161.248 132.554 160.912 133.142 160.226V160.24C133.142 162.466 131.98 163.614 130.132 163.614C129.446 163.614 128.802 163.488 128.27 163.138L127.598 164.51C128.256 164.93 129.194 165.14 130.174 165.14C133.016 165.14 134.976 163.292 134.976 159.932C134.976 156.782 133.408 155.06 130.734 155.06ZM130.874 159.82C129.684 159.82 128.914 159.176 128.914 158.154C128.914 157.132 129.698 156.488 130.832 156.488C132.134 156.488 132.862 157.216 132.862 158.14C132.862 159.106 132.05 159.82 130.874 159.82ZM137.566 167.716C138.672 166.022 139.274 163.74 139.274 161.164C139.274 158.588 138.672 156.278 137.566 154.612H135.9C137.062 156.656 137.566 158.77 137.566 161.164C137.566 163.558 137.062 165.672 135.9 167.716H137.566Z" fill="#808080"/>
<path d="M35.584 164.256V161.168H40.992V159.456H35.584V156.544H41.68V154.8H33.504V166H41.904V164.256H35.584ZM51.5705 166L48.2265 161.632L51.4265 157.456H49.2665L47.1705 160.256L45.0745 157.456H42.8505L46.0345 161.664L42.7065 166H44.9145L47.1225 163.04L49.3145 166H51.5705ZM57.7824 157.36C56.6144 157.36 55.6224 157.76 54.9504 158.576V157.456H53.0464V169.104H55.0464V164.96C55.7344 165.744 56.6944 166.112 57.7824 166.112C60.2784 166.112 62.1184 164.384 62.1184 161.728C62.1184 159.088 60.2784 157.36 57.7824 157.36ZM57.5584 164.4C56.1184 164.4 55.0144 163.36 55.0144 161.728C55.0144 160.096 56.1184 159.056 57.5584 159.056C58.9984 159.056 60.0864 160.096 60.0864 161.728C60.0864 163.36 58.9984 164.4 57.5584 164.4ZM72.0471 161.776C72.0471 159.104 70.2231 157.36 67.7271 157.36C65.1831 157.36 63.3111 159.184 63.3111 161.728C63.3111 164.272 65.1671 166.112 68.0311 166.112C69.5031 166.112 70.7031 165.632 71.4711 164.72L70.3991 163.488C69.7911 164.112 69.0391 164.416 68.0791 164.416C66.5911 164.416 65.5511 163.616 65.3111 162.368H72.0151C72.0311 162.176 72.0471 161.936 72.0471 161.776ZM67.7271 158.96C69.0391 158.96 69.9831 159.808 70.1431 161.04H65.2951C65.4871 159.792 66.4311 158.96 67.7271 158.96ZM75.8723 158.704V157.456H73.9683V166H75.9683V161.856C75.9683 160.112 76.9283 159.216 78.4483 159.216C78.5923 159.216 78.7363 159.232 78.9123 159.264V157.36C77.4883 157.36 76.4483 157.808 75.8723 158.704ZM85.4974 164.112C85.1934 164.352 84.7934 164.464 84.3774 164.464C83.6094 164.464 83.1934 164.016 83.1934 163.184V159.12H85.4814V157.52H83.1934V155.568H81.1934V157.52H79.7854V159.12H81.1934V163.232C81.1934 165.12 82.2654 166.112 84.1374 166.112C84.8574 166.112 85.5774 165.92 86.0574 165.536L85.4974 164.112Z" fill="#1C3554"/>
<path fill-rule="evenodd" clip-rule="evenodd" d="M19 153V167H5V153H19ZM19 151H5C3.9 151 3 151.9 3 153V167C3 168.1 3.9 169 5 169H19C20.1 169 21 168.1 21 167V153C21 151.9 20.1 151 19 151Z" fill="#CCCCCC"/>
<path d="M150.884 119.716H152.55C151.388 117.672 150.898 115.558 150.898 113.164C150.898 110.77 151.388 108.656 152.55 106.612H150.884C149.792 108.278 149.176 110.588 149.176 113.164C149.176 115.74 149.792 118.022 150.884 119.716ZM155.948 115.46L158.566 112.968C159.924 111.694 160.19 110.826 160.19 109.874C160.19 108.138 158.818 107.06 156.69 107.06C155.08 107.06 153.722 107.662 152.966 108.684L154.24 109.664C154.786 108.964 155.584 108.642 156.536 108.642C157.74 108.642 158.356 109.16 158.356 110.056C158.356 110.602 158.188 111.176 157.236 112.086L153.344 115.782V117H160.568V115.46H155.948ZM165.665 117.14C168.003 117.14 169.767 115.32 169.767 112.1C169.767 108.88 168.003 107.06 165.665 107.06C163.341 107.06 161.577 108.88 161.577 112.1C161.577 115.32 163.341 117.14 165.665 117.14ZM165.665 115.558C164.335 115.558 163.411 114.466 163.411 112.1C163.411 109.734 164.335 108.642 165.665 108.642C167.009 108.642 167.933 109.734 167.933 112.1C167.933 114.466 167.009 115.558 165.665 115.558ZM179.733 113.234H177.997V111.26H176.289V113.234H173.083L177.633 107.2H175.687L170.857 113.514V114.774H176.233V117H177.997V114.774H179.733V113.234ZM183.734 107.06C181.732 107.06 180.15 108.292 180.15 110.238C180.15 112.072 181.592 113.248 183.524 113.248C184.616 113.248 185.554 112.912 186.142 112.226V112.24C186.142 114.466 184.98 115.614 183.132 115.614C182.446 115.614 181.802 115.488 181.27 115.138L180.598 116.51C181.256 116.93 182.194 117.14 183.174 117.14C186.016 117.14 187.976 115.292 187.976 111.932C187.976 108.782 186.408 107.06 183.734 107.06ZM183.874 111.82C182.684 111.82 181.914 111.176 181.914 110.154C181.914 109.132 182.698 108.488 183.832 108.488C185.134 108.488 185.862 109.216 185.862 110.14C185.862 111.106 185.05 111.82 183.874 111.82ZM190.566 119.716C191.672 118.022 192.274 115.74 192.274 113.164C192.274 110.588 191.672 108.278 190.566 106.612H188.9C190.062 108.656 190.566 110.77 190.566 113.164C190.566 115.558 190.062 117.672 188.9 119.716H190.566Z" fill="#808080"/>
<path d="M33.504 118H35.584V106.8H33.504V118ZM43.2694 109.36C42.0214 109.36 40.9814 109.776 40.3254 110.56V109.456H38.4214V118H40.4214V113.68C40.4214 111.968 41.3814 111.104 42.8054 111.104C44.0854 111.104 44.8374 111.84 44.8374 113.36V118H46.8374V113.104C46.8374 110.528 45.3174 109.36 43.2694 109.36ZM53.9505 116.112C53.6465 116.352 53.2465 116.464 52.8305 116.464C52.0625 116.464 51.6465 116.016 51.6465 115.184V111.12H53.9345V109.52H51.6465V107.568H49.6465V109.52H48.2385V111.12H49.6465V115.232C49.6465 117.12 50.7185 118.112 52.5905 118.112C53.3105 118.112 54.0305 117.92 54.5105 117.536L53.9505 116.112ZM63.9065 113.776C63.9065 111.104 62.0825 109.36 59.5865 109.36C57.0425 109.36 55.1705 111.184 55.1705 113.728C55.1705 116.272 57.0265 118.112 59.8905 118.112C61.3625 118.112 62.5625 117.632 63.3305 116.72L62.2585 115.488C61.6505 116.112 60.8985 116.416 59.9385 116.416C58.4505 116.416 57.4105 115.616 57.1705 114.368H63.8745C63.8905 114.176 63.9065 113.936 63.9065 113.776ZM59.5865 110.96C60.8985 110.96 61.8425 111.808 62.0025 113.04H57.1545C57.3465 111.792 58.2905 110.96 59.5865 110.96ZM67.7316 110.704V109.456H65.8276V118H67.8276V113.856C67.8276 112.112 68.7876 111.216 70.3076 111.216C70.4516 111.216 70.5956 111.232 70.7716 111.264V109.36C69.3476 109.36 68.3076 109.808 67.7316 110.704ZM83.2523 109.36C81.8923 109.36 80.7403 109.904 80.0523 110.784C79.4603 109.824 78.4203 109.36 77.1723 109.36C76.0043 109.36 75.0123 109.776 74.3723 110.544V109.456H72.4683V118H74.4683V113.664C74.4683 111.968 75.3643 111.104 76.6923 111.104C77.9083 111.104 78.6123 111.84 78.6123 113.36V118H80.6123V113.664C80.6123 111.968 81.5243 111.104 82.8363 111.104C84.0523 111.104 84.7563 111.84 84.7563 113.36V118H86.7563V113.104C86.7563 110.528 85.3163 109.36 83.2523 109.36ZM97.4221 113.776C97.4221 111.104 95.5981 109.36 93.1021 109.36C90.5581 109.36 88.6861 111.184 88.6861 113.728C88.6861 116.272 90.5421 118.112 93.4061 118.112C94.8781 118.112 96.0781 117.632 96.8461 116.72L95.7741 115.488C95.1661 116.112 94.4141 116.416 93.4541 116.416C91.9661 116.416 90.9261 115.616 90.6861 114.368H97.3901C97.4061 114.176 97.4221 113.936 97.4221 113.776ZM93.1021 110.96C94.4141 110.96 95.3581 111.808 95.5181 113.04H90.6701C90.8621 111.792 91.8061 110.96 93.1021 110.96ZM105.711 106.128V110.512C105.039 109.728 104.063 109.36 102.959 109.36C100.479 109.36 98.6393 111.072 98.6393 113.728C98.6393 116.384 100.479 118.112 102.959 118.112C104.127 118.112 105.119 117.712 105.791 116.896V118H107.711V106.128H105.711ZM103.199 116.4C101.759 116.4 100.655 115.36 100.655 113.728C100.655 112.096 101.759 111.056 103.199 111.056C104.639 111.056 105.743 112.096 105.743 113.728C105.743 115.36 104.639 116.4 103.199 116.4ZM111.336 108.048C112.088 108.048 112.616 107.504 112.616 106.8C112.616 106.144 112.072 105.648 111.336 105.648C110.6 105.648 110.056 106.176 110.056 106.848C110.056 107.52 110.6 108.048 111.336 108.048ZM110.328 118H112.328V109.456H110.328V118ZM118.217 109.36C116.841 109.36 115.513 109.712 114.601 110.416L115.385 111.872C116.025 111.344 117.017 111.024 117.977 111.024C119.401 111.024 120.105 111.712 120.105 112.88V113.008H117.897C115.305 113.008 114.345 114.128 114.345 115.552C114.345 117.04 115.577 118.112 117.529 118.112C118.809 118.112 119.737 117.696 120.217 116.96V118H122.105V112.992C122.105 110.528 120.681 109.36 118.217 109.36ZM117.945 116.656C116.921 116.656 116.313 116.192 116.313 115.472C116.313 114.848 116.681 114.336 118.041 114.336H120.105V115.328C119.769 116.208 118.921 116.656 117.945 116.656ZM129.247 116.112C128.943 116.352 128.543 116.464 128.127 116.464C127.359 116.464 126.943 116.016 126.943 115.184V111.12H129.231V109.52H126.943V107.568H124.943V109.52H123.535V111.12H124.943V115.232C124.943 117.12 126.015 118.112 127.887 118.112C128.607 118.112 129.327 117.92 129.807 117.536L129.247 116.112ZM139.203 113.776C139.203 111.104 137.379 109.36 134.883 109.36C132.339 109.36 130.467 111.184 130.467 113.728C130.467 116.272 132.323 118.112 135.187 118.112C136.659 118.112 137.859 117.632 138.627 116.72L137.555 115.488C136.947 116.112 136.195 116.416 135.235 116.416C133.747 116.416 132.707 115.616 132.467 114.368H139.171C139.187 114.176 139.203 113.936 139.203 113.776ZM134.883 110.96C136.195 110.96 137.139 111.808 137.299 113.04H132.451C132.643 111.792 133.587 110.96 134.883 110.96Z" fill="#1C3554"/>
<path fill-rule="evenodd" clip-rule="evenodd" d="M19 105V119H5V105H19ZM19 103H5C3.9 103 3 103.9 3 105V119C3 120.1 3.9 121 5 121H19C20.1 121 21 120.1 21 119V105C21 103.9 20.1 103 19 103Z" fill="#CCCCCC"/>
<path d="M118.884 71.716H120.55C119.388 69.672 118.898 67.558 118.898 65.164C118.898 62.77 119.388 60.656 120.55 58.612H118.884C117.792 60.278 117.176 62.588 117.176 65.164C117.176 67.74 117.792 70.022 118.884 71.716ZM123.948 67.46L126.566 64.968C127.924 63.694 128.19 62.826 128.19 61.874C128.19 60.138 126.818 59.06 124.69 59.06C123.08 59.06 121.722 59.662 120.966 60.684L122.24 61.664C122.786 60.964 123.584 60.642 124.536 60.642C125.74 60.642 126.356 61.16 126.356 62.056C126.356 62.602 126.188 63.176 125.236 64.086L121.344 67.782V69H128.568V67.46H123.948ZM133.665 69.14C136.003 69.14 137.767 67.32 137.767 64.1C137.767 60.88 136.003 59.06 133.665 59.06C131.341 59.06 129.577 60.88 129.577 64.1C129.577 67.32 131.341 69.14 133.665 69.14ZM133.665 67.558C132.335 67.558 131.411 66.466 131.411 64.1C131.411 61.734 132.335 60.642 133.665 60.642C135.009 60.642 135.933 61.734 135.933 64.1C135.933 66.466 135.009 67.558 133.665 67.558ZM147.733 65.234H145.997V63.26H144.289V65.234H141.083L145.633 59.2H143.687L138.857 65.514V66.774H144.233V69H145.997V66.774H147.733V65.234ZM151.734 59.06C149.732 59.06 148.15 60.292 148.15 62.238C148.15 64.072 149.592 65.248 151.524 65.248C152.616 65.248 153.554 64.912 154.142 64.226V64.24C154.142 66.466 152.98 67.614 151.132 67.614C150.446 67.614 149.802 67.488 149.27 67.138L148.598 68.51C149.256 68.93 150.194 69.14 151.174 69.14C154.016 69.14 155.976 67.292 155.976 63.932C155.976 60.782 154.408 59.06 151.734 59.06ZM151.874 63.82C150.684 63.82 149.914 63.176 149.914 62.154C149.914 61.132 150.698 60.488 151.832 60.488C153.134 60.488 153.862 61.216 153.862 62.14C153.862 63.106 153.05 63.82 151.874 63.82ZM158.566 71.716C159.672 70.022 160.274 67.74 160.274 65.164C160.274 62.588 159.672 60.278 158.566 58.612H156.9C158.062 60.656 158.566 62.77 158.566 65.164C158.566 67.558 158.062 69.672 156.9 71.716H158.566Z" fill="#808080"/>
<path d="M40.44 64.176C41.304 63.712 41.88 62.864 41.88 61.712C41.88 59.936 40.44 58.8 37.752 58.8H32.504V70H38.072C40.952 70 42.456 68.88 42.456 66.96C42.456 65.504 41.64 64.56 40.44 64.176ZM37.528 60.432C38.968 60.432 39.784 60.944 39.784 61.984C39.784 63.008 38.968 63.52 37.528 63.52H34.584V60.432H37.528ZM37.944 68.368H34.584V65.136H37.944C39.512 65.136 40.36 65.632 40.36 66.752C40.36 67.872 39.512 68.368 37.944 68.368ZM52.5159 65.776C52.5159 63.104 50.6919 61.36 48.1959 61.36C45.6519 61.36 43.7799 63.184 43.7799 65.728C43.7799 68.272 45.6359 70.112 48.4999 70.112C49.9719 70.112 51.1719 69.632 51.9399 68.72L50.8679 67.488C50.2599 68.112 49.5079 68.416 48.5479 68.416C47.0599 68.416 46.0199 67.616 45.7799 66.368H52.4839C52.4999 66.176 52.5159 65.936 52.5159 65.776ZM48.1959 62.96C49.5079 62.96 50.4519 63.808 50.6119 65.04H45.7639C45.9559 63.792 46.8999 62.96 48.1959 62.96ZM61.013 61.456V62.592C60.309 61.744 59.253 61.36 58.053 61.36C55.605 61.36 53.733 62.992 53.733 65.472C53.733 67.952 55.605 69.616 58.053 69.616C59.205 69.616 60.213 69.248 60.917 68.48V68.928C60.917 70.656 60.085 71.52 58.197 71.52C57.013 71.52 55.797 71.12 55.045 70.496L54.149 72C55.125 72.8 56.709 73.216 58.309 73.216C61.301 73.216 62.917 71.808 62.917 68.704V61.456H61.013ZM58.357 67.92C56.837 67.92 55.749 66.928 55.749 65.472C55.749 64.032 56.837 63.056 58.357 63.056C59.861 63.056 60.949 64.032 60.949 65.472C60.949 66.928 59.861 67.92 58.357 67.92ZM66.5544 60.048C67.3064 60.048 67.8344 59.504 67.8344 58.8C67.8344 58.144 67.2904 57.648 66.5544 57.648C65.8184 57.648 65.2744 58.176 65.2744 58.848C65.2744 59.52 65.8184 60.048 66.5544 60.048ZM65.5464 70H67.5464V61.456H65.5464V70ZM75.0194 61.36C73.7714 61.36 72.7314 61.776 72.0754 62.56V61.456H70.1714V70H72.1714V65.68C72.1714 63.968 73.1314 63.104 74.5554 63.104C75.8354 63.104 76.5874 63.84 76.5874 65.36V70H78.5874V65.104C78.5874 62.528 77.0674 61.36 75.0194 61.36ZM85.9725 61.36C84.7245 61.36 83.6845 61.776 83.0285 62.56V61.456H81.1245V70H83.1245V65.68C83.1245 63.968 84.0845 63.104 85.5085 63.104C86.7885 63.104 87.5405 63.84 87.5405 65.36V70H89.5405V65.104C89.5405 62.528 88.0205 61.36 85.9725 61.36ZM100.188 65.776C100.188 63.104 98.3638 61.36 95.8678 61.36C93.3238 61.36 91.4518 63.184 91.4518 65.728C91.4518 68.272 93.3078 70.112 96.1718 70.112C97.6438 70.112 98.8438 69.632 99.6118 68.72L98.5398 67.488C97.9318 68.112 97.1798 68.416 96.2198 68.416C94.7318 68.416 93.6918 67.616 93.4518 66.368H100.156C100.172 66.176 100.188 65.936 100.188 65.776ZM95.8678 62.96C97.1798 62.96 98.1238 63.808 98.2838 65.04H93.4358C93.6278 63.792 94.5718 62.96 95.8678 62.96ZM104.013 62.704V61.456H102.109V70H104.109V65.856C104.109 64.112 105.069 63.216 106.589 63.216C106.733 63.216 106.877 63.232 107.053 63.264V61.36C105.629 61.36 104.589 61.808 104.013 62.704Z" fill="#1C3554"/>
<path fill-rule="evenodd" clip-rule="evenodd" d="M19 57V71H5V57H19ZM19 55H5C3.9 55 3 55.9 3 57V71C3 72.1 3.9 73 5 73H19C20.1 73 21 72.1 21 71V57C21 55.9 20.1 55 19 55Z" fill="#CCCCCC"/>
<path fill-rule="evenodd" clip-rule="evenodd" d="M226 8.78133L214.391 20.3907L216.276 22.276L226 12.552L235.724 22.276L237.609 20.3907L226 8.78133Z" fill="#1C3554"/>
<path d="M2.232 24C2.072 24 1.928 23.944 1.8 23.832C1.688 23.704 1.632 23.56 1.632 23.4V7.8C1.632 7.624 1.688 7.48 1.8 7.368C1.928 7.256 2.072 7.2 2.232 7.2H5.592C5.768 7.2 5.912 7.256 6.024 7.368C6.136 7.48 6.192 7.624 6.192 7.8V20.232H13.392C13.568 20.232 13.712 20.296 13.824 20.424C13.952 20.536 14.016 20.68 14.016 20.856V23.4C14.016 23.576 13.952 23.72 13.824 23.832C13.712 23.944 13.568 24 13.392 24H2.232ZM21.5209 24.24C19.5689 24.24 18.0329 23.72 16.9129 22.68C15.7929 21.624 15.2169 20.096 15.1849 18.096V17.352C15.2489 15.448 15.8409 13.96 16.9609 12.888C18.0809 11.816 19.5929 11.28 21.4969 11.28C22.8729 11.28 24.0329 11.56 24.9769 12.12C25.9369 12.664 26.6489 13.424 27.1129 14.4C27.5929 15.36 27.8329 16.456 27.8329 17.688V18.288C27.8329 18.464 27.7689 18.616 27.6409 18.744C27.5289 18.856 27.3849 18.912 27.2089 18.912H19.6009V19.056C19.6169 19.776 19.7849 20.36 20.1049 20.808C20.4249 21.24 20.8809 21.456 21.4729 21.456C21.8569 21.456 22.1609 21.384 22.3849 21.24C22.6249 21.08 22.8489 20.88 23.0569 20.64C23.2009 20.48 23.3129 20.384 23.3929 20.352C23.4889 20.304 23.6329 20.28 23.8249 20.28H26.9689C27.1129 20.28 27.2329 20.328 27.3289 20.424C27.4409 20.504 27.4969 20.608 27.4969 20.736C27.4969 21.152 27.2569 21.64 26.7769 22.2C26.3129 22.76 25.6249 23.24 24.7129 23.64C23.8169 24.04 22.7529 24.24 21.5209 24.24ZM23.4169 16.464V16.416C23.4169 15.648 23.2489 15.056 22.9129 14.64C22.5769 14.208 22.1049 13.992 21.4969 13.992C20.8889 13.992 20.4169 14.208 20.0809 14.64C19.7609 15.056 19.6009 15.648 19.6009 16.416V16.464H23.4169ZM33.9804 24C33.7564 24 33.5804 23.952 33.4524 23.856C33.3404 23.744 33.2444 23.592 33.1644 23.4L28.6044 12.264C28.5884 12.216 28.5804 12.152 28.5804 12.072C28.5804 11.912 28.6284 11.784 28.7244 11.688C28.8364 11.576 28.9724 11.52 29.1324 11.52H31.9884C32.3244 11.52 32.5644 11.688 32.7084 12.024L35.3244 19.2L37.9644 12.024C38.0124 11.896 38.0924 11.784 38.2044 11.688C38.3164 11.576 38.4684 11.52 38.6604 11.52H41.5404C41.6844 11.52 41.8124 11.576 41.9244 11.688C42.0364 11.784 42.0924 11.912 42.0924 12.072L42.0444 12.264L37.5084 23.4C37.4284 23.592 37.3244 23.744 37.1964 23.856C37.0684 23.952 36.8924 24 36.6684 24H33.9804ZM49.2709 24.24C47.3189 24.24 45.7829 23.72 44.6629 22.68C43.5429 21.624 42.9669 20.096 42.9349 18.096V17.352C42.9989 15.448 43.5909 13.96 44.7109 12.888C45.8309 11.816 47.3429 11.28 49.2469 11.28C50.6229 11.28 51.7829 11.56 52.7269 12.12C53.6869 12.664 54.3989 13.424 54.8629 14.4C55.3429 15.36 55.5829 16.456 55.5829 17.688V18.288C55.5829 18.464 55.5189 18.616 55.3909 18.744C55.2789 18.856 55.1349 18.912 54.9589 18.912H47.3509V19.056C47.3669 19.776 47.5349 20.36 47.8549 20.808C48.1749 21.24 48.6309 21.456 49.2229 21.456C49.6069 21.456 49.9109 21.384 50.1349 21.24C50.3749 21.08 50.5989 20.88 50.8069 20.64C50.9509 20.48 51.0629 20.384 51.1429 20.352C51.2389 20.304 51.3829 20.28 51.5749 20.28H54.7189C54.8629 20.28 54.9829 20.328 55.0789 20.424C55.1909 20.504 55.2469 20.608 55.2469 20.736C55.2469 21.152 55.0069 21.64 54.5269 22.2C54.0629 22.76 53.3749 23.24 52.4629 23.64C51.5669 24.04 50.5029 24.24 49.2709 24.24ZM51.1669 16.464V16.416C51.1669 15.648 50.9989 15.056 50.6629 14.64C50.3269 14.208 49.8549 13.992 49.2469 13.992C48.6389 13.992 48.1669 14.208 47.8309 14.64C47.5109 15.056 47.3509 15.648 47.3509 16.416V16.464H51.1669ZM58.3592 24C58.1832 24 58.0312 23.944 57.9032 23.832C57.7912 23.72 57.7352 23.576 57.7352 23.4V7.56C57.7352 7.384 57.7912 7.24 57.9032 7.128C58.0312 7.016 58.1832 6.96 58.3592 6.96H61.3592C61.5352 6.96 61.6792 7.016 61.7912 7.128C61.9032 7.24 61.9592 7.384 61.9592 7.56V23.4C61.9592 23.56 61.9032 23.704 61.7912 23.832C61.6792 23.944 61.5352 24 61.3592 24H58.3592Z" fill="#1C3554"/>
</svg>
