<svg width="233" height="32" viewBox="0 0 233 32" fill="none" xmlns="http://www.w3.org/2000/svg">
<path d="M2.232 24C2.072 24 1.928 23.944 1.8 23.832C1.688 23.704 1.632 23.56 1.632 23.4V7.824C1.632 7.648 1.688 7.504 1.8 7.392C1.912 7.264 2.056 7.2 2.232 7.2H9.024C11.104 7.2 12.736 7.672 13.92 8.616C15.104 9.56 15.696 10.944 15.696 12.768C15.696 14.592 15.104 15.96 13.92 16.872C12.736 17.768 11.104 18.216 9.024 18.216H6.288V23.4C6.288 23.56 6.232 23.704 6.12 23.832C6.008 23.944 5.864 24 5.688 24H2.232ZM8.904 14.784C9.56 14.784 10.072 14.616 10.44 14.28C10.824 13.928 11.016 13.416 11.016 12.744C11.016 12.12 10.84 11.616 10.488 11.232C10.152 10.848 9.624 10.656 8.904 10.656H6.216V14.784H8.904ZM18.2571 24C18.0971 24 17.9531 23.944 17.8251 23.832C17.7131 23.704 17.6571 23.56 17.6571 23.4V12.144C17.6571 11.968 17.7131 11.824 17.8251 11.712C17.9371 11.584 18.0811 11.52 18.2571 11.52H21.1851C21.3611 11.52 21.5051 11.584 21.6171 11.712C21.7451 11.824 21.8091 11.968 21.8091 12.144V13.056C22.2571 12.56 22.7771 12.184 23.3691 11.928C23.9771 11.656 24.6491 11.52 25.3851 11.52H26.4651C26.6411 11.52 26.7851 11.576 26.8971 11.688C27.0091 11.8 27.0651 11.944 27.0651 12.12V14.736C27.0651 14.896 27.0091 15.04 26.8971 15.168C26.7851 15.28 26.6411 15.336 26.4651 15.336H24.0411C23.4011 15.336 22.9051 15.512 22.5531 15.864C22.2171 16.216 22.0491 16.712 22.0491 17.352V23.4C22.0491 23.576 21.9851 23.72 21.8571 23.832C21.7451 23.944 21.6011 24 21.4251 24H18.2571ZM29.3196 9.792C29.1436 9.792 28.9996 9.736 28.8876 9.624C28.7756 9.496 28.7196 9.344 28.7196 9.168V6.936C28.7196 6.76 28.7756 6.616 28.8876 6.504C29.0156 6.376 29.1596 6.312 29.3196 6.312H32.3196C32.4956 6.312 32.6396 6.376 32.7516 6.504C32.8796 6.616 32.9436 6.76 32.9436 6.936V9.168C32.9436 9.344 32.8796 9.496 32.7516 9.624C32.6396 9.736 32.4956 9.792 32.3196 9.792H29.3196ZM29.3196 24C29.1596 24 29.0156 23.944 28.8876 23.832C28.7756 23.704 28.7196 23.56 28.7196 23.4V12.12C28.7196 11.944 28.7756 11.8 28.8876 11.688C29.0156 11.576 29.1596 11.52 29.3196 11.52H32.3196C32.4956 11.52 32.6396 11.576 32.7516 11.688C32.8796 11.8 32.9436 11.944 32.9436 12.12V23.4C32.9436 23.576 32.8796 23.72 32.7516 23.832C32.6396 23.944 32.4956 24 32.3196 24H29.3196ZM41.4885 24.24C39.6645 24.24 38.1845 23.76 37.0485 22.8C35.9285 21.824 35.3285 20.472 35.2485 18.744L35.2245 17.784L35.2485 16.8C35.3125 15.072 35.9125 13.72 37.0485 12.744C38.1845 11.768 39.6645 11.28 41.4885 11.28C42.8805 11.28 44.0485 11.528 44.9925 12.024C45.9365 12.52 46.6405 13.112 47.1045 13.8C47.5685 14.472 47.8165 15.088 47.8485 15.648C47.8645 15.824 47.8085 15.976 47.6805 16.104C47.5525 16.216 47.4005 16.272 47.2245 16.272H44.0085C43.8325 16.272 43.6965 16.232 43.6005 16.152C43.5045 16.072 43.4165 15.944 43.3365 15.768C43.1605 15.32 42.9285 14.992 42.6405 14.784C42.3685 14.576 42.0165 14.472 41.5845 14.472C40.3525 14.472 39.7125 15.288 39.6645 16.92L39.6405 17.832L39.6645 18.624C39.6805 19.456 39.8485 20.072 40.1685 20.472C40.4885 20.856 40.9605 21.048 41.5845 21.048C42.0485 21.048 42.4085 20.952 42.6645 20.76C42.9365 20.552 43.1605 20.216 43.3365 19.752C43.4165 19.576 43.5045 19.448 43.6005 19.368C43.6965 19.288 43.8325 19.248 44.0085 19.248H47.2245C47.3845 19.248 47.5285 19.304 47.6565 19.416C47.7845 19.528 47.8485 19.664 47.8485 19.824C47.8485 20.32 47.6245 20.92 47.1765 21.624C46.7445 22.312 46.0485 22.92 45.0885 23.448C44.1285 23.976 42.9285 24.24 41.4885 24.24ZM55.7631 24.24C53.8111 24.24 52.2751 23.72 51.1551 22.68C50.0351 21.624 49.4591 20.096 49.4271 18.096V17.352C49.4911 15.448 50.0831 13.96 51.2031 12.888C52.3231 11.816 53.8351 11.28 55.7391 11.28C57.1151 11.28 58.2751 11.56 59.2191 12.12C60.1791 12.664 60.8911 13.424 61.3551 14.4C61.8351 15.36 62.0751 16.456 62.0751 17.688V18.288C62.0751 18.464 62.0111 18.616 61.8831 18.744C61.7711 18.856 61.6271 18.912 61.4511 18.912H53.8431V19.056C53.8591 19.776 54.0271 20.36 54.3471 20.808C54.6671 21.24 55.1231 21.456 55.7151 21.456C56.0991 21.456 56.4031 21.384 56.6271 21.24C56.8671 21.08 57.0911 20.88 57.2991 20.64C57.4431 20.48 57.5551 20.384 57.6351 20.352C57.7311 20.304 57.8751 20.28 58.0671 20.28H61.2111C61.3551 20.28 61.4751 20.328 61.5711 20.424C61.6831 20.504 61.7391 20.608 61.7391 20.736C61.7391 21.152 61.4991 21.64 61.0191 22.2C60.5551 22.76 59.8671 23.24 58.9551 23.64C58.0591 24.04 56.9951 24.24 55.7631 24.24ZM57.6591 16.464V16.416C57.6591 15.648 57.4911 15.056 57.1551 14.64C56.8191 14.208 56.3471 13.992 55.7391 13.992C55.1311 13.992 54.6591 14.208 54.3231 14.64C54.0031 15.056 53.8431 15.648 53.8431 16.416V16.464H57.6591Z" fill="#1C3554"/>
<path fill-rule="evenodd" clip-rule="evenodd" d="M217 23.2187L205.391 11.6093L207.276 9.724L217 19.448L226.724 9.724L228.609 11.6093L217 23.2187Z" fill="#1C3554"/>
</svg>
